<?xml version="1.0" encoding="utf-8" standalone="no"?>
<!DOCTYPE svg PUBLIC "-//W3C//DTD SVG 1.1//EN"
  "http://www.w3.org/Graphics/SVG/1.1/DTD/svg11.dtd">
<!-- Created with matplotlib (http://matplotlib.org/) -->
<svg height="889.005156pt" version="1.1" viewBox="0 0 2282.345 889.005156" width="2282.345pt" xmlns="http://www.w3.org/2000/svg" xmlns:xlink="http://www.w3.org/1999/xlink">
 <defs>
  <style type="text/css">
*{stroke-linecap:butt;stroke-linejoin:round;}
  </style>
 </defs>
 <g id="figure_1">
  <g id="patch_1">
   <path d="M 0 889.005156 
L 2282.345 889.005156 
L 2282.345 0 
L 0 0 
z
" style="fill:#ffffff;"/>
  </g>
  <g id="axes_1">
   <g id="patch_2">
    <path d="M 39.645 859.320156 
L 1054.190455 859.320156 
L 1054.190455 27.720156 
L 39.645 27.720156 
z
" style="fill:#e5e5e5;"/>
   </g>
   <g id="matplotlib.axis_1">
    <g id="xtick_1">
     <g id="line2d_1">
      <path clip-path="url(#p0733e97663)" d="M 85.760702 859.320156 
L 85.760702 27.720156 
" style="fill:none;stroke:#ffffff;stroke-linecap:square;stroke-width:0.8;"/>
     </g>
     <g id="line2d_2">
      <defs>
       <path d="M 0 0 
L 0 3.5 
" id="mdea159dc70" style="stroke:#555555;stroke-width:0.8;"/>
      </defs>
      <g>
       <use style="fill:#555555;stroke:#555555;stroke-width:0.8;" x="85.760702" xlink:href="#mdea159dc70" y="859.320156"/>
      </g>
     </g>
     <g id="text_1">
      <!-- 0 -->
      <defs>
       <path d="M 31.78125 66.40625 
Q 24.171875 66.40625 20.328125 58.90625 
Q 16.5 51.421875 16.5 36.375 
Q 16.5 21.390625 20.328125 13.890625 
Q 24.171875 6.390625 31.78125 6.390625 
Q 39.453125 6.390625 43.28125 13.890625 
Q 47.125 21.390625 47.125 36.375 
Q 47.125 51.421875 43.28125 58.90625 
Q 39.453125 66.40625 31.78125 66.40625 
z
M 31.78125 74.21875 
Q 44.046875 74.21875 50.515625 64.515625 
Q 56.984375 54.828125 56.984375 36.375 
Q 56.984375 17.96875 50.515625 8.265625 
Q 44.046875 -1.421875 31.78125 -1.421875 
Q 19.53125 -1.421875 13.0625 8.265625 
Q 6.59375 17.96875 6.59375 36.375 
Q 6.59375 54.828125 13.0625 64.515625 
Q 19.53125 74.21875 31.78125 74.21875 
z
" id="DejaVuSans-30"/>
      </defs>
      <g style="fill:#555555;" transform="translate(80.670702 878.477656)scale(0.16 -0.16)">
       <use xlink:href="#DejaVuSans-30"/>
      </g>
     </g>
    </g>
    <g id="xtick_2">
     <g id="line2d_3">
      <path clip-path="url(#p0733e97663)" d="M 209.561246 859.320156 
L 209.561246 27.720156 
" style="fill:none;stroke:#ffffff;stroke-linecap:square;stroke-width:0.8;"/>
     </g>
     <g id="line2d_4">
      <g>
       <use style="fill:#555555;stroke:#555555;stroke-width:0.8;" x="209.561246" xlink:href="#mdea159dc70" y="859.320156"/>
      </g>
     </g>
     <g id="text_2">
      <!-- 20 -->
      <defs>
       <path d="M 19.1875 8.296875 
L 53.609375 8.296875 
L 53.609375 0 
L 7.328125 0 
L 7.328125 8.296875 
Q 12.9375 14.109375 22.625 23.890625 
Q 32.328125 33.6875 34.8125 36.53125 
Q 39.546875 41.84375 41.421875 45.53125 
Q 43.3125 49.21875 43.3125 52.78125 
Q 43.3125 58.59375 39.234375 62.25 
Q 35.15625 65.921875 28.609375 65.921875 
Q 23.96875 65.921875 18.8125 64.3125 
Q 13.671875 62.703125 7.8125 59.421875 
L 7.8125 69.390625 
Q 13.765625 71.78125 18.9375 73 
Q 24.125 74.21875 28.421875 74.21875 
Q 39.75 74.21875 46.484375 68.546875 
Q 53.21875 62.890625 53.21875 53.421875 
Q 53.21875 48.921875 51.53125 44.890625 
Q 49.859375 40.875 45.40625 35.40625 
Q 44.1875 33.984375 37.640625 27.21875 
Q 31.109375 20.453125 19.1875 8.296875 
z
" id="DejaVuSans-32"/>
      </defs>
      <g style="fill:#555555;" transform="translate(199.381246 878.477656)scale(0.16 -0.16)">
       <use xlink:href="#DejaVuSans-32"/>
       <use x="63.623047" xlink:href="#DejaVuSans-30"/>
      </g>
     </g>
    </g>
    <g id="xtick_3">
     <g id="line2d_5">
      <path clip-path="url(#p0733e97663)" d="M 333.36179 859.320156 
L 333.36179 27.720156 
" style="fill:none;stroke:#ffffff;stroke-linecap:square;stroke-width:0.8;"/>
     </g>
     <g id="line2d_6">
      <g>
       <use style="fill:#555555;stroke:#555555;stroke-width:0.8;" x="333.36179" xlink:href="#mdea159dc70" y="859.320156"/>
      </g>
     </g>
     <g id="text_3">
      <!-- 40 -->
      <defs>
       <path d="M 37.796875 64.3125 
L 12.890625 25.390625 
L 37.796875 25.390625 
z
M 35.203125 72.90625 
L 47.609375 72.90625 
L 47.609375 25.390625 
L 58.015625 25.390625 
L 58.015625 17.1875 
L 47.609375 17.1875 
L 47.609375 0 
L 37.796875 0 
L 37.796875 17.1875 
L 4.890625 17.1875 
L 4.890625 26.703125 
z
" id="DejaVuSans-34"/>
      </defs>
      <g style="fill:#555555;" transform="translate(323.18179 878.477656)scale(0.16 -0.16)">
       <use xlink:href="#DejaVuSans-34"/>
       <use x="63.623047" xlink:href="#DejaVuSans-30"/>
      </g>
     </g>
    </g>
    <g id="xtick_4">
     <g id="line2d_7">
      <path clip-path="url(#p0733e97663)" d="M 457.162333 859.320156 
L 457.162333 27.720156 
" style="fill:none;stroke:#ffffff;stroke-linecap:square;stroke-width:0.8;"/>
     </g>
     <g id="line2d_8">
      <g>
       <use style="fill:#555555;stroke:#555555;stroke-width:0.8;" x="457.162333" xlink:href="#mdea159dc70" y="859.320156"/>
      </g>
     </g>
     <g id="text_4">
      <!-- 60 -->
      <defs>
       <path d="M 33.015625 40.375 
Q 26.375 40.375 22.484375 35.828125 
Q 18.609375 31.296875 18.609375 23.390625 
Q 18.609375 15.53125 22.484375 10.953125 
Q 26.375 6.390625 33.015625 6.390625 
Q 39.65625 6.390625 43.53125 10.953125 
Q 47.40625 15.53125 47.40625 23.390625 
Q 47.40625 31.296875 43.53125 35.828125 
Q 39.65625 40.375 33.015625 40.375 
z
M 52.59375 71.296875 
L 52.59375 62.3125 
Q 48.875 64.0625 45.09375 64.984375 
Q 41.3125 65.921875 37.59375 65.921875 
Q 27.828125 65.921875 22.671875 59.328125 
Q 17.53125 52.734375 16.796875 39.40625 
Q 19.671875 43.65625 24.015625 45.921875 
Q 28.375 48.1875 33.59375 48.1875 
Q 44.578125 48.1875 50.953125 41.515625 
Q 57.328125 34.859375 57.328125 23.390625 
Q 57.328125 12.15625 50.6875 5.359375 
Q 44.046875 -1.421875 33.015625 -1.421875 
Q 20.359375 -1.421875 13.671875 8.265625 
Q 6.984375 17.96875 6.984375 36.375 
Q 6.984375 53.65625 15.1875 63.9375 
Q 23.390625 74.21875 37.203125 74.21875 
Q 40.921875 74.21875 44.703125 73.484375 
Q 48.484375 72.75 52.59375 71.296875 
z
" id="DejaVuSans-36"/>
      </defs>
      <g style="fill:#555555;" transform="translate(446.982333 878.477656)scale(0.16 -0.16)">
       <use xlink:href="#DejaVuSans-36"/>
       <use x="63.623047" xlink:href="#DejaVuSans-30"/>
      </g>
     </g>
    </g>
    <g id="xtick_5">
     <g id="line2d_9">
      <path clip-path="url(#p0733e97663)" d="M 580.962877 859.320156 
L 580.962877 27.720156 
" style="fill:none;stroke:#ffffff;stroke-linecap:square;stroke-width:0.8;"/>
     </g>
     <g id="line2d_10">
      <g>
       <use style="fill:#555555;stroke:#555555;stroke-width:0.8;" x="580.962877" xlink:href="#mdea159dc70" y="859.320156"/>
      </g>
     </g>
     <g id="text_5">
      <!-- 80 -->
      <defs>
       <path d="M 31.78125 34.625 
Q 24.75 34.625 20.71875 30.859375 
Q 16.703125 27.09375 16.703125 20.515625 
Q 16.703125 13.921875 20.71875 10.15625 
Q 24.75 6.390625 31.78125 6.390625 
Q 38.8125 6.390625 42.859375 10.171875 
Q 46.921875 13.96875 46.921875 20.515625 
Q 46.921875 27.09375 42.890625 30.859375 
Q 38.875 34.625 31.78125 34.625 
z
M 21.921875 38.8125 
Q 15.578125 40.375 12.03125 44.71875 
Q 8.5 49.078125 8.5 55.328125 
Q 8.5 64.0625 14.71875 69.140625 
Q 20.953125 74.21875 31.78125 74.21875 
Q 42.671875 74.21875 48.875 69.140625 
Q 55.078125 64.0625 55.078125 55.328125 
Q 55.078125 49.078125 51.53125 44.71875 
Q 48 40.375 41.703125 38.8125 
Q 48.828125 37.15625 52.796875 32.3125 
Q 56.78125 27.484375 56.78125 20.515625 
Q 56.78125 9.90625 50.3125 4.234375 
Q 43.84375 -1.421875 31.78125 -1.421875 
Q 19.734375 -1.421875 13.25 4.234375 
Q 6.78125 9.90625 6.78125 20.515625 
Q 6.78125 27.484375 10.78125 32.3125 
Q 14.796875 37.15625 21.921875 38.8125 
z
M 18.3125 54.390625 
Q 18.3125 48.734375 21.84375 45.5625 
Q 25.390625 42.390625 31.78125 42.390625 
Q 38.140625 42.390625 41.71875 45.5625 
Q 45.3125 48.734375 45.3125 54.390625 
Q 45.3125 60.0625 41.71875 63.234375 
Q 38.140625 66.40625 31.78125 66.40625 
Q 25.390625 66.40625 21.84375 63.234375 
Q 18.3125 60.0625 18.3125 54.390625 
z
" id="DejaVuSans-38"/>
      </defs>
      <g style="fill:#555555;" transform="translate(570.782877 878.477656)scale(0.16 -0.16)">
       <use xlink:href="#DejaVuSans-38"/>
       <use x="63.623047" xlink:href="#DejaVuSans-30"/>
      </g>
     </g>
    </g>
    <g id="xtick_6">
     <g id="line2d_11">
      <path clip-path="url(#p0733e97663)" d="M 704.76342 859.320156 
L 704.76342 27.720156 
" style="fill:none;stroke:#ffffff;stroke-linecap:square;stroke-width:0.8;"/>
     </g>
     <g id="line2d_12">
      <g>
       <use style="fill:#555555;stroke:#555555;stroke-width:0.8;" x="704.76342" xlink:href="#mdea159dc70" y="859.320156"/>
      </g>
     </g>
     <g id="text_6">
      <!-- 100 -->
      <defs>
       <path d="M 12.40625 8.296875 
L 28.515625 8.296875 
L 28.515625 63.921875 
L 10.984375 60.40625 
L 10.984375 69.390625 
L 28.421875 72.90625 
L 38.28125 72.90625 
L 38.28125 8.296875 
L 54.390625 8.296875 
L 54.390625 0 
L 12.40625 0 
z
" id="DejaVuSans-31"/>
      </defs>
      <g style="fill:#555555;" transform="translate(689.49342 878.477656)scale(0.16 -0.16)">
       <use xlink:href="#DejaVuSans-31"/>
       <use x="63.623047" xlink:href="#DejaVuSans-30"/>
       <use x="127.246094" xlink:href="#DejaVuSans-30"/>
      </g>
     </g>
    </g>
    <g id="xtick_7">
     <g id="line2d_13">
      <path clip-path="url(#p0733e97663)" d="M 828.563964 859.320156 
L 828.563964 27.720156 
" style="fill:none;stroke:#ffffff;stroke-linecap:square;stroke-width:0.8;"/>
     </g>
     <g id="line2d_14">
      <g>
       <use style="fill:#555555;stroke:#555555;stroke-width:0.8;" x="828.563964" xlink:href="#mdea159dc70" y="859.320156"/>
      </g>
     </g>
     <g id="text_7">
      <!-- 120 -->
      <g style="fill:#555555;" transform="translate(813.293964 878.477656)scale(0.16 -0.16)">
       <use xlink:href="#DejaVuSans-31"/>
       <use x="63.623047" xlink:href="#DejaVuSans-32"/>
       <use x="127.246094" xlink:href="#DejaVuSans-30"/>
      </g>
     </g>
    </g>
    <g id="xtick_8">
     <g id="line2d_15">
      <path clip-path="url(#p0733e97663)" d="M 952.364507 859.320156 
L 952.364507 27.720156 
" style="fill:none;stroke:#ffffff;stroke-linecap:square;stroke-width:0.8;"/>
     </g>
     <g id="line2d_16">
      <g>
       <use style="fill:#555555;stroke:#555555;stroke-width:0.8;" x="952.364507" xlink:href="#mdea159dc70" y="859.320156"/>
      </g>
     </g>
     <g id="text_8">
      <!-- 140 -->
      <g style="fill:#555555;" transform="translate(937.094507 878.477656)scale(0.16 -0.16)">
       <use xlink:href="#DejaVuSans-31"/>
       <use x="63.623047" xlink:href="#DejaVuSans-34"/>
       <use x="127.246094" xlink:href="#DejaVuSans-30"/>
      </g>
     </g>
    </g>
   </g>
   <g id="matplotlib.axis_2">
    <g id="ytick_1">
     <g id="line2d_17">
      <path clip-path="url(#p0733e97663)" d="M 39.645 741.545478 
L 1054.190455 741.545478 
" style="fill:none;stroke:#ffffff;stroke-linecap:square;stroke-width:0.8;"/>
     </g>
     <g id="line2d_18">
      <defs>
       <path d="M 0 0 
L -3.5 0 
" id="m89039158ae" style="stroke:#555555;stroke-width:0.8;"/>
      </defs>
      <g>
       <use style="fill:#555555;stroke:#555555;stroke-width:0.8;" x="39.645" xlink:href="#m89039158ae" y="741.545478"/>
      </g>
     </g>
     <g id="text_9">
      <!-- 1.0 -->
      <defs>
       <path d="M 10.6875 12.40625 
L 21 12.40625 
L 21 0 
L 10.6875 0 
z
" id="DejaVuSans-2e"/>
      </defs>
      <g style="fill:#555555;" transform="translate(7.2 747.624228)scale(0.16 -0.16)">
       <use xlink:href="#DejaVuSans-31"/>
       <use x="63.623047" xlink:href="#DejaVuSans-2e"/>
       <use x="95.410156" xlink:href="#DejaVuSans-30"/>
      </g>
     </g>
    </g>
    <g id="ytick_2">
     <g id="line2d_19">
      <path clip-path="url(#p0733e97663)" d="M 39.645 590.137023 
L 1054.190455 590.137023 
" style="fill:none;stroke:#ffffff;stroke-linecap:square;stroke-width:0.8;"/>
     </g>
     <g id="line2d_20">
      <g>
       <use style="fill:#555555;stroke:#555555;stroke-width:0.8;" x="39.645" xlink:href="#m89039158ae" y="590.137023"/>
      </g>
     </g>
     <g id="text_10">
      <!-- 1.5 -->
      <defs>
       <path d="M 10.796875 72.90625 
L 49.515625 72.90625 
L 49.515625 64.59375 
L 19.828125 64.59375 
L 19.828125 46.734375 
Q 21.96875 47.46875 24.109375 47.828125 
Q 26.265625 48.1875 28.421875 48.1875 
Q 40.625 48.1875 47.75 41.5 
Q 54.890625 34.8125 54.890625 23.390625 
Q 54.890625 11.625 47.5625 5.09375 
Q 40.234375 -1.421875 26.90625 -1.421875 
Q 22.3125 -1.421875 17.546875 -0.640625 
Q 12.796875 0.140625 7.71875 1.703125 
L 7.71875 11.625 
Q 12.109375 9.234375 16.796875 8.0625 
Q 21.484375 6.890625 26.703125 6.890625 
Q 35.15625 6.890625 40.078125 11.328125 
Q 45.015625 15.765625 45.015625 23.390625 
Q 45.015625 31 40.078125 35.4375 
Q 35.15625 39.890625 26.703125 39.890625 
Q 22.75 39.890625 18.8125 39.015625 
Q 14.890625 38.140625 10.796875 36.28125 
z
" id="DejaVuSans-35"/>
      </defs>
      <g style="fill:#555555;" transform="translate(7.2 596.215773)scale(0.16 -0.16)">
       <use xlink:href="#DejaVuSans-31"/>
       <use x="63.623047" xlink:href="#DejaVuSans-2e"/>
       <use x="95.410156" xlink:href="#DejaVuSans-35"/>
      </g>
     </g>
    </g>
    <g id="ytick_3">
     <g id="line2d_21">
      <path clip-path="url(#p0733e97663)" d="M 39.645 438.728568 
L 1054.190455 438.728568 
" style="fill:none;stroke:#ffffff;stroke-linecap:square;stroke-width:0.8;"/>
     </g>
     <g id="line2d_22">
      <g>
       <use style="fill:#555555;stroke:#555555;stroke-width:0.8;" x="39.645" xlink:href="#m89039158ae" y="438.728568"/>
      </g>
     </g>
     <g id="text_11">
      <!-- 2.0 -->
      <g style="fill:#555555;" transform="translate(7.2 444.807318)scale(0.16 -0.16)">
       <use xlink:href="#DejaVuSans-32"/>
       <use x="63.623047" xlink:href="#DejaVuSans-2e"/>
       <use x="95.410156" xlink:href="#DejaVuSans-30"/>
      </g>
     </g>
    </g>
    <g id="ytick_4">
     <g id="line2d_23">
      <path clip-path="url(#p0733e97663)" d="M 39.645 287.320113 
L 1054.190455 287.320113 
" style="fill:none;stroke:#ffffff;stroke-linecap:square;stroke-width:0.8;"/>
     </g>
     <g id="line2d_24">
      <g>
       <use style="fill:#555555;stroke:#555555;stroke-width:0.8;" x="39.645" xlink:href="#m89039158ae" y="287.320113"/>
      </g>
     </g>
     <g id="text_12">
      <!-- 2.5 -->
      <g style="fill:#555555;" transform="translate(7.2 293.398863)scale(0.16 -0.16)">
       <use xlink:href="#DejaVuSans-32"/>
       <use x="63.623047" xlink:href="#DejaVuSans-2e"/>
       <use x="95.410156" xlink:href="#DejaVuSans-35"/>
      </g>
     </g>
    </g>
    <g id="ytick_5">
     <g id="line2d_25">
      <path clip-path="url(#p0733e97663)" d="M 39.645 135.911658 
L 1054.190455 135.911658 
" style="fill:none;stroke:#ffffff;stroke-linecap:square;stroke-width:0.8;"/>
     </g>
     <g id="line2d_26">
      <g>
       <use style="fill:#555555;stroke:#555555;stroke-width:0.8;" x="39.645" xlink:href="#m89039158ae" y="135.911658"/>
      </g>
     </g>
     <g id="text_13">
      <!-- 3.0 -->
      <defs>
       <path d="M 40.578125 39.3125 
Q 47.65625 37.796875 51.625 33 
Q 55.609375 28.21875 55.609375 21.1875 
Q 55.609375 10.40625 48.1875 4.484375 
Q 40.765625 -1.421875 27.09375 -1.421875 
Q 22.515625 -1.421875 17.65625 -0.515625 
Q 12.796875 0.390625 7.625 2.203125 
L 7.625 11.71875 
Q 11.71875 9.328125 16.59375 8.109375 
Q 21.484375 6.890625 26.8125 6.890625 
Q 36.078125 6.890625 40.9375 10.546875 
Q 45.796875 14.203125 45.796875 21.1875 
Q 45.796875 27.640625 41.28125 31.265625 
Q 36.765625 34.90625 28.71875 34.90625 
L 20.21875 34.90625 
L 20.21875 43.015625 
L 29.109375 43.015625 
Q 36.375 43.015625 40.234375 45.921875 
Q 44.09375 48.828125 44.09375 54.296875 
Q 44.09375 59.90625 40.109375 62.90625 
Q 36.140625 65.921875 28.71875 65.921875 
Q 24.65625 65.921875 20.015625 65.03125 
Q 15.375 64.15625 9.8125 62.3125 
L 9.8125 71.09375 
Q 15.4375 72.65625 20.34375 73.4375 
Q 25.25 74.21875 29.59375 74.21875 
Q 40.828125 74.21875 47.359375 69.109375 
Q 53.90625 64.015625 53.90625 55.328125 
Q 53.90625 49.265625 50.4375 45.09375 
Q 46.96875 40.921875 40.578125 39.3125 
z
" id="DejaVuSans-33"/>
      </defs>
      <g style="fill:#555555;" transform="translate(7.2 141.990408)scale(0.16 -0.16)">
       <use xlink:href="#DejaVuSans-33"/>
       <use x="63.623047" xlink:href="#DejaVuSans-2e"/>
       <use x="95.410156" xlink:href="#DejaVuSans-30"/>
      </g>
     </g>
    </g>
   </g>
   <g id="line2d_27">
    <path clip-path="url(#p0733e97663)" d="M 85.760702 65.520156 
L 91.95073 170.5877 
L 98.140757 211.026386 
L 104.330784 204.217839 
L 110.520811 254.833419 
L 116.710838 263.244186 
L 122.900866 279.696826 
L 129.090893 293.475166 
L 135.28092 297.181721 
L 141.470947 320.326982 
L 147.660974 325.443078 
L 153.851001 354.669352 
L 160.041029 355.451458 
L 166.231056 361.543483 
L 172.421083 371.377721 
L 178.61111 381.941819 
L 184.801137 409.698148 
L 190.991165 412.087138 
L 197.181192 419.688794 
L 203.371219 431.924114 
L 209.561246 447.266351 
L 215.751273 437.242252 
L 221.9413 450.731418 
L 228.131328 448.731166 
L 234.321355 484.759856 
L 240.511382 484.93212 
L 246.701409 463.823754 
L 252.891436 465.572589 
L 259.081463 489.145027 
L 265.271491 514.738023 
L 271.461518 500.450521 
L 277.651545 505.78684 
L 283.841572 505.847209 
L 290.031599 523.171136 
L 296.221627 549.097584 
L 302.411654 547.040665 
L 308.601681 551.449663 
L 314.791708 548.609474 
L 320.981735 561.520634 
L 327.171762 574.088596 
L 333.36179 555.62916 
L 339.551817 561.696799 
L 345.741844 591.110028 
L 351.931871 583.966222 
L 358.121898 568.685408 
L 364.311926 589.744541 
L 370.501953 590.710725 
L 376.69198 605.910518 
L 382.882007 581.589269 
L 389.072034 597.930465 
L 395.262061 591.500485 
L 401.452089 604.721264 
L 407.642116 610.324566 
L 413.832143 618.609848 
L 420.02217 599.620591 
L 426.212197 602.034578 
L 432.402224 628.867272 
L 438.592252 629.799784 
L 444.782279 637.12435 
L 450.972306 642.350646 
L 457.162333 634.222984 
L 463.35236 650.375642 
L 469.542388 630.828282 
L 475.732415 629.076561 
L 481.922442 646.806792 
L 488.112469 655.922676 
L 494.302496 662.216804 
L 500.492523 649.203318 
L 506.682551 663.605264 
L 512.872578 683.706985 
L 519.062605 654.153546 
L 525.252632 670.277506 
L 531.442659 668.375053 
L 537.632687 674.305152 
L 543.822714 659.969923 
L 550.012741 677.522314 
L 556.202768 681.105081 
L 562.392795 691.093498 
L 568.582822 672.261226 
L 574.77285 679.825173 
L 580.962877 691.079577 
L 587.152904 696.460823 
L 593.342931 708.140768 
L 599.532958 692.291646 
L 605.722985 705.229989 
L 611.913013 685.430723 
L 618.10304 686.774054 
L 624.293067 699.907264 
L 630.483094 714.031552 
L 636.673121 714.333856 
L 642.863149 712.849404 
L 649.053176 707.664869 
L 655.243203 728.715466 
L 661.43323 711.605166 
L 667.623257 714.966618 
L 673.813284 703.466887 
L 680.003312 708.450489 
L 686.193339 713.688084 
L 692.383366 726.448007 
L 698.573393 745.536657 
L 704.76342 731.089001 
L 710.953448 749.668985 
L 717.143475 766.925545 
L 723.333502 770.314471 
L 729.523529 777.509243 
L 735.713556 777.924449 
L 741.903583 774.510358 
L 748.093611 776.117825 
L 754.283638 789.335395 
L 760.473665 788.155389 
L 766.663692 782.716848 
L 772.853719 788.718983 
L 779.043746 786.433603 
L 785.233774 784.783884 
L 791.423801 775.97161 
L 797.613828 801.856663 
L 803.803855 785.23113 
L 809.993882 774.287238 
L 816.18391 794.405253 
L 822.373937 788.644129 
L 828.563964 786.957511 
L 834.753991 790.376118 
L 840.944018 806.867932 
L 847.134045 808.673318 
L 853.324073 800.531351 
L 859.5141 801.040247 
L 865.704127 790.892287 
L 871.894154 802.244024 
L 878.084181 810.90992 
L 884.274208 800.548984 
L 890.464236 793.252066 
L 896.654263 808.365692 
L 902.84429 808.366031 
L 909.034317 812.614809 
L 915.224344 812.500146 
L 921.414372 800.864757 
L 927.604399 786.593732 
L 933.794426 807.781116 
L 939.984453 804.355674 
L 946.17448 817.04463 
L 952.364507 811.954562 
L 958.554535 801.904859 
L 964.744562 814.121269 
L 970.934589 819.44008 
L 977.124616 814.261686 
L 983.314643 804.90394 
L 989.504671 804.513032 
L 995.694698 804.726554 
L 1001.884725 819.485757 
L 1008.074752 821.520156 
L 1008.074752 821.520156 
" style="fill:none;stroke:#000000;stroke-linecap:square;"/>
   </g>
   <g id="patch_3">
    <path d="M 39.645 859.320156 
L 39.645 27.720156 
" style="fill:none;stroke:#ffffff;stroke-linecap:square;stroke-linejoin:miter;"/>
   </g>
   <g id="patch_4">
    <path d="M 1054.190455 859.320156 
L 1054.190455 27.720156 
" style="fill:none;stroke:#ffffff;stroke-linecap:square;stroke-linejoin:miter;"/>
   </g>
   <g id="patch_5">
    <path d="M 39.645 859.320156 
L 1054.190455 859.320156 
" style="fill:none;stroke:#ffffff;stroke-linecap:square;stroke-linejoin:miter;"/>
   </g>
   <g id="patch_6">
    <path d="M 39.645 27.720156 
L 1054.190455 27.720156 
" style="fill:none;stroke:#ffffff;stroke-linecap:square;stroke-linejoin:miter;"/>
   </g>
   <g id="text_14">
    <!-- Training Performance -->
    <defs>
     <path d="M -0.296875 72.90625 
L 61.375 72.90625 
L 61.375 64.59375 
L 35.5 64.59375 
L 35.5 0 
L 25.59375 0 
L 25.59375 64.59375 
L -0.296875 64.59375 
z
" id="DejaVuSans-54"/>
     <path d="M 41.109375 46.296875 
Q 39.59375 47.171875 37.8125 47.578125 
Q 36.03125 48 33.890625 48 
Q 26.265625 48 22.1875 43.046875 
Q 18.109375 38.09375 18.109375 28.8125 
L 18.109375 0 
L 9.078125 0 
L 9.078125 54.6875 
L 18.109375 54.6875 
L 18.109375 46.1875 
Q 20.953125 51.171875 25.484375 53.578125 
Q 30.03125 56 36.53125 56 
Q 37.453125 56 38.578125 55.875 
Q 39.703125 55.765625 41.0625 55.515625 
z
" id="DejaVuSans-72"/>
     <path d="M 34.28125 27.484375 
Q 23.390625 27.484375 19.1875 25 
Q 14.984375 22.515625 14.984375 16.5 
Q 14.984375 11.71875 18.140625 8.90625 
Q 21.296875 6.109375 26.703125 6.109375 
Q 34.1875 6.109375 38.703125 11.40625 
Q 43.21875 16.703125 43.21875 25.484375 
L 43.21875 27.484375 
z
M 52.203125 31.203125 
L 52.203125 0 
L 43.21875 0 
L 43.21875 8.296875 
Q 40.140625 3.328125 35.546875 0.953125 
Q 30.953125 -1.421875 24.3125 -1.421875 
Q 15.921875 -1.421875 10.953125 3.296875 
Q 6 8.015625 6 15.921875 
Q 6 25.140625 12.171875 29.828125 
Q 18.359375 34.515625 30.609375 34.515625 
L 43.21875 34.515625 
L 43.21875 35.40625 
Q 43.21875 41.609375 39.140625 45 
Q 35.0625 48.390625 27.6875 48.390625 
Q 23 48.390625 18.546875 47.265625 
Q 14.109375 46.140625 10.015625 43.890625 
L 10.015625 52.203125 
Q 14.9375 54.109375 19.578125 55.046875 
Q 24.21875 56 28.609375 56 
Q 40.484375 56 46.34375 49.84375 
Q 52.203125 43.703125 52.203125 31.203125 
z
" id="DejaVuSans-61"/>
     <path d="M 9.421875 54.6875 
L 18.40625 54.6875 
L 18.40625 0 
L 9.421875 0 
z
M 9.421875 75.984375 
L 18.40625 75.984375 
L 18.40625 64.59375 
L 9.421875 64.59375 
z
" id="DejaVuSans-69"/>
     <path d="M 54.890625 33.015625 
L 54.890625 0 
L 45.90625 0 
L 45.90625 32.71875 
Q 45.90625 40.484375 42.875 44.328125 
Q 39.84375 48.1875 33.796875 48.1875 
Q 26.515625 48.1875 22.3125 43.546875 
Q 18.109375 38.921875 18.109375 30.90625 
L 18.109375 0 
L 9.078125 0 
L 9.078125 54.6875 
L 18.109375 54.6875 
L 18.109375 46.1875 
Q 21.34375 51.125 25.703125 53.5625 
Q 30.078125 56 35.796875 56 
Q 45.21875 56 50.046875 50.171875 
Q 54.890625 44.34375 54.890625 33.015625 
z
" id="DejaVuSans-6e"/>
     <path d="M 45.40625 27.984375 
Q 45.40625 37.75 41.375 43.109375 
Q 37.359375 48.484375 30.078125 48.484375 
Q 22.859375 48.484375 18.828125 43.109375 
Q 14.796875 37.75 14.796875 27.984375 
Q 14.796875 18.265625 18.828125 12.890625 
Q 22.859375 7.515625 30.078125 7.515625 
Q 37.359375 7.515625 41.375 12.890625 
Q 45.40625 18.265625 45.40625 27.984375 
z
M 54.390625 6.78125 
Q 54.390625 -7.171875 48.1875 -13.984375 
Q 42 -20.796875 29.203125 -20.796875 
Q 24.46875 -20.796875 20.265625 -20.09375 
Q 16.0625 -19.390625 12.109375 -17.921875 
L 12.109375 -9.1875 
Q 16.0625 -11.328125 19.921875 -12.34375 
Q 23.78125 -13.375 27.78125 -13.375 
Q 36.625 -13.375 41.015625 -8.765625 
Q 45.40625 -4.15625 45.40625 5.171875 
L 45.40625 9.625 
Q 42.625 4.78125 38.28125 2.390625 
Q 33.9375 0 27.875 0 
Q 17.828125 0 11.671875 7.65625 
Q 5.515625 15.328125 5.515625 27.984375 
Q 5.515625 40.671875 11.671875 48.328125 
Q 17.828125 56 27.875 56 
Q 33.9375 56 38.28125 53.609375 
Q 42.625 51.21875 45.40625 46.390625 
L 45.40625 54.6875 
L 54.390625 54.6875 
z
" id="DejaVuSans-67"/>
     <path id="DejaVuSans-20"/>
     <path d="M 19.671875 64.796875 
L 19.671875 37.40625 
L 32.078125 37.40625 
Q 38.96875 37.40625 42.71875 40.96875 
Q 46.484375 44.53125 46.484375 51.125 
Q 46.484375 57.671875 42.71875 61.234375 
Q 38.96875 64.796875 32.078125 64.796875 
z
M 9.8125 72.90625 
L 32.078125 72.90625 
Q 44.34375 72.90625 50.609375 67.359375 
Q 56.890625 61.8125 56.890625 51.125 
Q 56.890625 40.328125 50.609375 34.8125 
Q 44.34375 29.296875 32.078125 29.296875 
L 19.671875 29.296875 
L 19.671875 0 
L 9.8125 0 
z
" id="DejaVuSans-50"/>
     <path d="M 56.203125 29.59375 
L 56.203125 25.203125 
L 14.890625 25.203125 
Q 15.484375 15.921875 20.484375 11.0625 
Q 25.484375 6.203125 34.421875 6.203125 
Q 39.59375 6.203125 44.453125 7.46875 
Q 49.3125 8.734375 54.109375 11.28125 
L 54.109375 2.78125 
Q 49.265625 0.734375 44.1875 -0.34375 
Q 39.109375 -1.421875 33.890625 -1.421875 
Q 20.796875 -1.421875 13.15625 6.1875 
Q 5.515625 13.8125 5.515625 26.8125 
Q 5.515625 40.234375 12.765625 48.109375 
Q 20.015625 56 32.328125 56 
Q 43.359375 56 49.78125 48.890625 
Q 56.203125 41.796875 56.203125 29.59375 
z
M 47.21875 32.234375 
Q 47.125 39.59375 43.09375 43.984375 
Q 39.0625 48.390625 32.421875 48.390625 
Q 24.90625 48.390625 20.390625 44.140625 
Q 15.875 39.890625 15.1875 32.171875 
z
" id="DejaVuSans-65"/>
     <path d="M 37.109375 75.984375 
L 37.109375 68.5 
L 28.515625 68.5 
Q 23.6875 68.5 21.796875 66.546875 
Q 19.921875 64.59375 19.921875 59.515625 
L 19.921875 54.6875 
L 34.71875 54.6875 
L 34.71875 47.703125 
L 19.921875 47.703125 
L 19.921875 0 
L 10.890625 0 
L 10.890625 47.703125 
L 2.296875 47.703125 
L 2.296875 54.6875 
L 10.890625 54.6875 
L 10.890625 58.5 
Q 10.890625 67.625 15.140625 71.796875 
Q 19.390625 75.984375 28.609375 75.984375 
z
" id="DejaVuSans-66"/>
     <path d="M 30.609375 48.390625 
Q 23.390625 48.390625 19.1875 42.75 
Q 14.984375 37.109375 14.984375 27.296875 
Q 14.984375 17.484375 19.15625 11.84375 
Q 23.34375 6.203125 30.609375 6.203125 
Q 37.796875 6.203125 41.984375 11.859375 
Q 46.1875 17.53125 46.1875 27.296875 
Q 46.1875 37.015625 41.984375 42.703125 
Q 37.796875 48.390625 30.609375 48.390625 
z
M 30.609375 56 
Q 42.328125 56 49.015625 48.375 
Q 55.71875 40.765625 55.71875 27.296875 
Q 55.71875 13.875 49.015625 6.21875 
Q 42.328125 -1.421875 30.609375 -1.421875 
Q 18.84375 -1.421875 12.171875 6.21875 
Q 5.515625 13.875 5.515625 27.296875 
Q 5.515625 40.765625 12.171875 48.375 
Q 18.84375 56 30.609375 56 
z
" id="DejaVuSans-6f"/>
     <path d="M 52 44.1875 
Q 55.375 50.25 60.0625 53.125 
Q 64.75 56 71.09375 56 
Q 79.640625 56 84.28125 50.015625 
Q 88.921875 44.046875 88.921875 33.015625 
L 88.921875 0 
L 79.890625 0 
L 79.890625 32.71875 
Q 79.890625 40.578125 77.09375 44.375 
Q 74.3125 48.1875 68.609375 48.1875 
Q 61.625 48.1875 57.5625 43.546875 
Q 53.515625 38.921875 53.515625 30.90625 
L 53.515625 0 
L 44.484375 0 
L 44.484375 32.71875 
Q 44.484375 40.625 41.703125 44.40625 
Q 38.921875 48.1875 33.109375 48.1875 
Q 26.21875 48.1875 22.15625 43.53125 
Q 18.109375 38.875 18.109375 30.90625 
L 18.109375 0 
L 9.078125 0 
L 9.078125 54.6875 
L 18.109375 54.6875 
L 18.109375 46.1875 
Q 21.1875 51.21875 25.484375 53.609375 
Q 29.78125 56 35.6875 56 
Q 41.65625 56 45.828125 52.96875 
Q 50 49.953125 52 44.1875 
z
" id="DejaVuSans-6d"/>
     <path d="M 48.78125 52.59375 
L 48.78125 44.1875 
Q 44.96875 46.296875 41.140625 47.34375 
Q 37.3125 48.390625 33.40625 48.390625 
Q 24.65625 48.390625 19.8125 42.84375 
Q 14.984375 37.3125 14.984375 27.296875 
Q 14.984375 17.28125 19.8125 11.734375 
Q 24.65625 6.203125 33.40625 6.203125 
Q 37.3125 6.203125 41.140625 7.25 
Q 44.96875 8.296875 48.78125 10.40625 
L 48.78125 2.09375 
Q 45.015625 0.34375 40.984375 -0.53125 
Q 36.96875 -1.421875 32.421875 -1.421875 
Q 20.0625 -1.421875 12.78125 6.34375 
Q 5.515625 14.109375 5.515625 27.296875 
Q 5.515625 40.671875 12.859375 48.328125 
Q 20.21875 56 33.015625 56 
Q 37.15625 56 41.109375 55.140625 
Q 45.0625 54.296875 48.78125 52.59375 
z
" id="DejaVuSans-63"/>
    </defs>
    <g transform="translate(444.338509 21.720156)scale(0.19 -0.19)">
     <use xlink:href="#DejaVuSans-54"/>
     <use x="60.865234" xlink:href="#DejaVuSans-72"/>
     <use x="101.978516" xlink:href="#DejaVuSans-61"/>
     <use x="163.257812" xlink:href="#DejaVuSans-69"/>
     <use x="191.041016" xlink:href="#DejaVuSans-6e"/>
     <use x="254.419922" xlink:href="#DejaVuSans-69"/>
     <use x="282.203125" xlink:href="#DejaVuSans-6e"/>
     <use x="345.582031" xlink:href="#DejaVuSans-67"/>
     <use x="409.058594" xlink:href="#DejaVuSans-20"/>
     <use x="440.845703" xlink:href="#DejaVuSans-50"/>
     <use x="501.101562" xlink:href="#DejaVuSans-65"/>
     <use x="562.625" xlink:href="#DejaVuSans-72"/>
     <use x="603.738281" xlink:href="#DejaVuSans-66"/>
     <use x="638.943359" xlink:href="#DejaVuSans-6f"/>
     <use x="700.125" xlink:href="#DejaVuSans-72"/>
     <use x="741.222656" xlink:href="#DejaVuSans-6d"/>
     <use x="838.634766" xlink:href="#DejaVuSans-61"/>
     <use x="899.914062" xlink:href="#DejaVuSans-6e"/>
     <use x="963.292969" xlink:href="#DejaVuSans-63"/>
     <use x="1018.273438" xlink:href="#DejaVuSans-65"/>
    </g>
   </g>
   <g id="legend_1">
    <g id="patch_7">
     <path d="M 910.627955 64.005156 
L 1042.990455 64.005156 
Q 1046.190455 64.005156 1046.190455 60.805156 
L 1046.190455 38.920156 
Q 1046.190455 35.720156 1042.990455 35.720156 
L 910.627955 35.720156 
Q 907.427955 35.720156 907.427955 38.920156 
L 907.427955 60.805156 
Q 907.427955 64.005156 910.627955 64.005156 
z
" style="fill:#e5e5e5;opacity:0.8;stroke:#cccccc;stroke-linejoin:miter;stroke-width:0.5;"/>
    </g>
    <g id="line2d_28">
     <path d="M 913.827955 48.677656 
L 945.827955 48.677656 
" style="fill:none;stroke:#000000;stroke-linecap:square;"/>
    </g>
    <g id="line2d_29"/>
    <g id="text_15">
     <!-- Train Loss -->
     <defs>
      <path d="M 9.8125 72.90625 
L 19.671875 72.90625 
L 19.671875 8.296875 
L 55.171875 8.296875 
L 55.171875 0 
L 9.8125 0 
z
" id="DejaVuSans-4c"/>
      <path d="M 44.28125 53.078125 
L 44.28125 44.578125 
Q 40.484375 46.53125 36.375 47.5 
Q 32.28125 48.484375 27.875 48.484375 
Q 21.1875 48.484375 17.84375 46.4375 
Q 14.5 44.390625 14.5 40.28125 
Q 14.5 37.15625 16.890625 35.375 
Q 19.28125 33.59375 26.515625 31.984375 
L 29.59375 31.296875 
Q 39.15625 29.25 43.1875 25.515625 
Q 47.21875 21.78125 47.21875 15.09375 
Q 47.21875 7.46875 41.1875 3.015625 
Q 35.15625 -1.421875 24.609375 -1.421875 
Q 20.21875 -1.421875 15.453125 -0.5625 
Q 10.6875 0.296875 5.421875 2 
L 5.421875 11.28125 
Q 10.40625 8.6875 15.234375 7.390625 
Q 20.0625 6.109375 24.8125 6.109375 
Q 31.15625 6.109375 34.5625 8.28125 
Q 37.984375 10.453125 37.984375 14.40625 
Q 37.984375 18.0625 35.515625 20.015625 
Q 33.0625 21.96875 24.703125 23.78125 
L 21.578125 24.515625 
Q 13.234375 26.265625 9.515625 29.90625 
Q 5.8125 33.546875 5.8125 39.890625 
Q 5.8125 47.609375 11.28125 51.796875 
Q 16.75 56 26.8125 56 
Q 31.78125 56 36.171875 55.265625 
Q 40.578125 54.546875 44.28125 53.078125 
z
" id="DejaVuSans-73"/>
     </defs>
     <g transform="translate(958.627955 54.277656)scale(0.16 -0.16)">
      <use xlink:href="#DejaVuSans-54"/>
      <use x="60.865234" xlink:href="#DejaVuSans-72"/>
      <use x="101.978516" xlink:href="#DejaVuSans-61"/>
      <use x="163.257812" xlink:href="#DejaVuSans-69"/>
      <use x="191.041016" xlink:href="#DejaVuSans-6e"/>
      <use x="254.419922" xlink:href="#DejaVuSans-20"/>
      <use x="286.207031" xlink:href="#DejaVuSans-4c"/>
      <use x="341.904297" xlink:href="#DejaVuSans-6f"/>
      <use x="403.085938" xlink:href="#DejaVuSans-73"/>
      <use x="455.185547" xlink:href="#DejaVuSans-73"/>
     </g>
    </g>
   </g>
  </g>
  <g id="axes_2">
   <g id="patch_8">
    <path d="M 1257.099545 859.320156 
L 2271.645 859.320156 
L 2271.645 27.720156 
L 1257.099545 27.720156 
z
" style="fill:#e5e5e5;"/>
   </g>
   <g id="matplotlib.axis_3">
    <g id="xtick_9">
     <g id="line2d_30">
      <path clip-path="url(#p8828c48fa5)" d="M 1303.215248 859.320156 
L 1303.215248 27.720156 
" style="fill:none;stroke:#ffffff;stroke-linecap:square;stroke-width:0.8;"/>
     </g>
     <g id="line2d_31">
      <g>
       <use style="fill:#555555;stroke:#555555;stroke-width:0.8;" x="1303.215248" xlink:href="#mdea159dc70" y="859.320156"/>
      </g>
     </g>
     <g id="text_16">
      <!-- 0 -->
      <g style="fill:#555555;" transform="translate(1298.125248 878.477656)scale(0.16 -0.16)">
       <use xlink:href="#DejaVuSans-30"/>
      </g>
     </g>
    </g>
    <g id="xtick_10">
     <g id="line2d_32">
      <path clip-path="url(#p8828c48fa5)" d="M 1427.015792 859.320156 
L 1427.015792 27.720156 
" style="fill:none;stroke:#ffffff;stroke-linecap:square;stroke-width:0.8;"/>
     </g>
     <g id="line2d_33">
      <g>
       <use style="fill:#555555;stroke:#555555;stroke-width:0.8;" x="1427.015792" xlink:href="#mdea159dc70" y="859.320156"/>
      </g>
     </g>
     <g id="text_17">
      <!-- 20 -->
      <g style="fill:#555555;" transform="translate(1416.835792 878.477656)scale(0.16 -0.16)">
       <use xlink:href="#DejaVuSans-32"/>
       <use x="63.623047" xlink:href="#DejaVuSans-30"/>
      </g>
     </g>
    </g>
    <g id="xtick_11">
     <g id="line2d_34">
      <path clip-path="url(#p8828c48fa5)" d="M 1550.816335 859.320156 
L 1550.816335 27.720156 
" style="fill:none;stroke:#ffffff;stroke-linecap:square;stroke-width:0.8;"/>
     </g>
     <g id="line2d_35">
      <g>
       <use style="fill:#555555;stroke:#555555;stroke-width:0.8;" x="1550.816335" xlink:href="#mdea159dc70" y="859.320156"/>
      </g>
     </g>
     <g id="text_18">
      <!-- 40 -->
      <g style="fill:#555555;" transform="translate(1540.636335 878.477656)scale(0.16 -0.16)">
       <use xlink:href="#DejaVuSans-34"/>
       <use x="63.623047" xlink:href="#DejaVuSans-30"/>
      </g>
     </g>
    </g>
    <g id="xtick_12">
     <g id="line2d_36">
      <path clip-path="url(#p8828c48fa5)" d="M 1674.616879 859.320156 
L 1674.616879 27.720156 
" style="fill:none;stroke:#ffffff;stroke-linecap:square;stroke-width:0.8;"/>
     </g>
     <g id="line2d_37">
      <g>
       <use style="fill:#555555;stroke:#555555;stroke-width:0.8;" x="1674.616879" xlink:href="#mdea159dc70" y="859.320156"/>
      </g>
     </g>
     <g id="text_19">
      <!-- 60 -->
      <g style="fill:#555555;" transform="translate(1664.436879 878.477656)scale(0.16 -0.16)">
       <use xlink:href="#DejaVuSans-36"/>
       <use x="63.623047" xlink:href="#DejaVuSans-30"/>
      </g>
     </g>
    </g>
    <g id="xtick_13">
     <g id="line2d_38">
      <path clip-path="url(#p8828c48fa5)" d="M 1798.417422 859.320156 
L 1798.417422 27.720156 
" style="fill:none;stroke:#ffffff;stroke-linecap:square;stroke-width:0.8;"/>
     </g>
     <g id="line2d_39">
      <g>
       <use style="fill:#555555;stroke:#555555;stroke-width:0.8;" x="1798.417422" xlink:href="#mdea159dc70" y="859.320156"/>
      </g>
     </g>
     <g id="text_20">
      <!-- 80 -->
      <g style="fill:#555555;" transform="translate(1788.237422 878.477656)scale(0.16 -0.16)">
       <use xlink:href="#DejaVuSans-38"/>
       <use x="63.623047" xlink:href="#DejaVuSans-30"/>
      </g>
     </g>
    </g>
    <g id="xtick_14">
     <g id="line2d_40">
      <path clip-path="url(#p8828c48fa5)" d="M 1922.217966 859.320156 
L 1922.217966 27.720156 
" style="fill:none;stroke:#ffffff;stroke-linecap:square;stroke-width:0.8;"/>
     </g>
     <g id="line2d_41">
      <g>
       <use style="fill:#555555;stroke:#555555;stroke-width:0.8;" x="1922.217966" xlink:href="#mdea159dc70" y="859.320156"/>
      </g>
     </g>
     <g id="text_21">
      <!-- 100 -->
      <g style="fill:#555555;" transform="translate(1906.947966 878.477656)scale(0.16 -0.16)">
       <use xlink:href="#DejaVuSans-31"/>
       <use x="63.623047" xlink:href="#DejaVuSans-30"/>
       <use x="127.246094" xlink:href="#DejaVuSans-30"/>
      </g>
     </g>
    </g>
    <g id="xtick_15">
     <g id="line2d_42">
      <path clip-path="url(#p8828c48fa5)" d="M 2046.018509 859.320156 
L 2046.018509 27.720156 
" style="fill:none;stroke:#ffffff;stroke-linecap:square;stroke-width:0.8;"/>
     </g>
     <g id="line2d_43">
      <g>
       <use style="fill:#555555;stroke:#555555;stroke-width:0.8;" x="2046.018509" xlink:href="#mdea159dc70" y="859.320156"/>
      </g>
     </g>
     <g id="text_22">
      <!-- 120 -->
      <g style="fill:#555555;" transform="translate(2030.748509 878.477656)scale(0.16 -0.16)">
       <use xlink:href="#DejaVuSans-31"/>
       <use x="63.623047" xlink:href="#DejaVuSans-32"/>
       <use x="127.246094" xlink:href="#DejaVuSans-30"/>
      </g>
     </g>
    </g>
    <g id="xtick_16">
     <g id="line2d_44">
      <path clip-path="url(#p8828c48fa5)" d="M 2169.819053 859.320156 
L 2169.819053 27.720156 
" style="fill:none;stroke:#ffffff;stroke-linecap:square;stroke-width:0.8;"/>
     </g>
     <g id="line2d_45">
      <g>
       <use style="fill:#555555;stroke:#555555;stroke-width:0.8;" x="2169.819053" xlink:href="#mdea159dc70" y="859.320156"/>
      </g>
     </g>
     <g id="text_23">
      <!-- 140 -->
      <g style="fill:#555555;" transform="translate(2154.549053 878.477656)scale(0.16 -0.16)">
       <use xlink:href="#DejaVuSans-31"/>
       <use x="63.623047" xlink:href="#DejaVuSans-34"/>
       <use x="127.246094" xlink:href="#DejaVuSans-30"/>
      </g>
     </g>
    </g>
   </g>
   <g id="matplotlib.axis_4">
    <g id="ytick_6">
     <g id="line2d_46">
      <path clip-path="url(#p8828c48fa5)" d="M 1257.099545 697.153984 
L 2271.645 697.153984 
" style="fill:none;stroke:#ffffff;stroke-linecap:square;stroke-width:0.8;"/>
     </g>
     <g id="line2d_47">
      <g>
       <use style="fill:#555555;stroke:#555555;stroke-width:0.8;" x="1257.099545" xlink:href="#m89039158ae" y="697.153984"/>
      </g>
     </g>
     <g id="text_24">
      <!-- 0.2 -->
      <g style="fill:#555555;" transform="translate(1224.654545 703.232734)scale(0.16 -0.16)">
       <use xlink:href="#DejaVuSans-30"/>
       <use x="63.623047" xlink:href="#DejaVuSans-2e"/>
       <use x="95.410156" xlink:href="#DejaVuSans-32"/>
      </g>
     </g>
    </g>
    <g id="ytick_7">
     <g id="line2d_48">
      <path clip-path="url(#p8828c48fa5)" d="M 1257.099545 517.479528 
L 2271.645 517.479528 
" style="fill:none;stroke:#ffffff;stroke-linecap:square;stroke-width:0.8;"/>
     </g>
     <g id="line2d_49">
      <g>
       <use style="fill:#555555;stroke:#555555;stroke-width:0.8;" x="1257.099545" xlink:href="#m89039158ae" y="517.479528"/>
      </g>
     </g>
     <g id="text_25">
      <!-- 0.4 -->
      <g style="fill:#555555;" transform="translate(1224.654545 523.558278)scale(0.16 -0.16)">
       <use xlink:href="#DejaVuSans-30"/>
       <use x="63.623047" xlink:href="#DejaVuSans-2e"/>
       <use x="95.410156" xlink:href="#DejaVuSans-34"/>
      </g>
     </g>
    </g>
    <g id="ytick_8">
     <g id="line2d_50">
      <path clip-path="url(#p8828c48fa5)" d="M 1257.099545 337.805072 
L 2271.645 337.805072 
" style="fill:none;stroke:#ffffff;stroke-linecap:square;stroke-width:0.8;"/>
     </g>
     <g id="line2d_51">
      <g>
       <use style="fill:#555555;stroke:#555555;stroke-width:0.8;" x="1257.099545" xlink:href="#m89039158ae" y="337.805072"/>
      </g>
     </g>
     <g id="text_26">
      <!-- 0.6 -->
      <g style="fill:#555555;" transform="translate(1224.654545 343.883822)scale(0.16 -0.16)">
       <use xlink:href="#DejaVuSans-30"/>
       <use x="63.623047" xlink:href="#DejaVuSans-2e"/>
       <use x="95.410156" xlink:href="#DejaVuSans-36"/>
      </g>
     </g>
    </g>
    <g id="ytick_9">
     <g id="line2d_52">
      <path clip-path="url(#p8828c48fa5)" d="M 1257.099545 158.130616 
L 2271.645 158.130616 
" style="fill:none;stroke:#ffffff;stroke-linecap:square;stroke-width:0.8;"/>
     </g>
     <g id="line2d_53">
      <g>
       <use style="fill:#555555;stroke:#555555;stroke-width:0.8;" x="1257.099545" xlink:href="#m89039158ae" y="158.130616"/>
      </g>
     </g>
     <g id="text_27">
      <!-- 0.8 -->
      <g style="fill:#555555;" transform="translate(1224.654545 164.209366)scale(0.16 -0.16)">
       <use xlink:href="#DejaVuSans-30"/>
       <use x="63.623047" xlink:href="#DejaVuSans-2e"/>
       <use x="95.410156" xlink:href="#DejaVuSans-38"/>
      </g>
     </g>
    </g>
   </g>
   <g id="line2d_54">
    <path clip-path="url(#p8828c48fa5)" d="M 1303.215248 572.966515 
L 1309.405275 528.258415 
L 1315.595302 513.801397 
L 1321.785329 508.963431 
L 1327.975357 509.154055 
L 1334.165384 490.5642 
L 1340.355411 494.249399 
L 1346.545438 484.694106 
L 1352.735465 470.864592 
L 1358.925493 461.577945 
L 1365.11552 460.222538 
L 1371.305547 450.442843 
L 1377.495574 470.165204 
L 1383.685601 446.327622 
L 1389.875628 442.558265 
L 1396.065656 440.798569 
L 1402.255683 429.196723 
L 1408.44571 441.994053 
L 1414.635737 435.018612 
L 1420.825764 423.019363 
L 1427.015792 427.355292 
L 1433.205819 418.344111 
L 1439.395846 414.75641 
L 1445.585873 406.621605 
L 1451.7759 408.865209 
L 1457.965927 401.214285 
L 1464.155955 409.321431 
L 1470.345982 409.415068 
L 1476.536009 395.484852 
L 1482.726036 402.631022 
L 1488.916063 399.414429 
L 1495.10609 405.215432 
L 1501.296118 403.944197 
L 1507.486145 391.245736 
L 1513.676172 402.88236 
L 1519.866199 394.174836 
L 1526.056226 388.208952 
L 1532.246254 397.340606 
L 1538.436281 394.608169 
L 1544.626308 388.053928 
L 1550.816335 394.903991 
L 1557.006362 382.745933 
L 1563.196389 392.225964 
L 1569.386417 391.652306 
L 1575.576444 388.388005 
L 1581.766471 394.174538 
L 1587.956498 388.427922 
L 1594.146525 388.290979 
L 1600.336552 375.819572 
L 1606.52658 379.360596 
L 1612.716607 379.285813 
L 1618.906634 378.862296 
L 1625.096661 386.790057 
L 1631.286688 385.710948 
L 1637.476716 377.531965 
L 1643.666743 376.08005 
L 1649.85677 376.469819 
L 1656.046797 377.604584 
L 1662.236824 375.335945 
L 1668.426851 367.980653 
L 1674.616879 383.813818 
L 1680.806906 371.191438 
L 1686.996933 376.368116 
L 1693.18696 373.741932 
L 1705.567015 373.979697 
L 1711.757042 368.314774 
L 1717.947069 372.101529 
L 1724.137096 367.493494 
L 1730.327123 370.611192 
L 1736.51715 367.961235 
L 1742.707178 369.599227 
L 1748.897205 375.598138 
L 1755.087232 370.813114 
L 1761.277259 370.965544 
L 1767.467286 382.299913 
L 1773.657313 372.730155 
L 1779.847341 373.414696 
L 1786.037368 372.845449 
L 1792.227395 378.387938 
L 1798.417422 365.126031 
L 1804.607449 368.931248 
L 1810.797477 370.145576 
L 1816.987504 371.029205 
L 1823.177531 365.43473 
L 1829.367558 370.997446 
L 1835.557585 372.551657 
L 1841.747612 372.011703 
L 1847.93764 361.529205 
L 1854.127667 364.845259 
L 1860.317694 381.479329 
L 1866.507721 374.111422 
L 1872.697748 368.215044 
L 1878.887776 364.717668 
L 1885.077803 368.96886 
L 1891.26783 372.028482 
L 1897.457857 368.694814 
L 1903.647884 369.603706 
L 1909.837911 368.529879 
L 1916.027939 364.695614 
L 1922.217966 361.423788 
L 1928.407993 357.586372 
L 1934.59802 356.321073 
L 1940.788047 352.360009 
L 1946.978074 355.180764 
L 1953.168102 352.983052 
L 1959.358129 350.111005 
L 1965.548156 345.153364 
L 1971.738183 350.070467 
L 1977.92821 345.199295 
L 1984.118238 348.479053 
L 1990.308265 348.138739 
L 1996.498292 350.68745 
L 2002.688319 348.848389 
L 2008.878346 347.771227 
L 2015.068373 351.033614 
L 2021.258401 350.321795 
L 2027.448428 354.231803 
L 2033.638455 347.603605 
L 2039.828482 350.464191 
L 2046.018509 351.385957 
L 2052.208537 348.129492 
L 2058.398564 343.132367 
L 2064.588591 348.696138 
L 2070.778618 349.405537 
L 2076.968645 351.025292 
L 2083.158672 346.29536 
L 2089.3487 348.589368 
L 2095.538727 346.480681 
L 2101.728754 350.202596 
L 2107.918781 340.781482 
L 2114.108808 340.90913 
L 2120.298835 346.709771 
L 2126.488863 349.780582 
L 2132.67889 347.149383 
L 2138.868917 343.083165 
L 2145.058944 349.056604 
L 2151.248971 350.172299 
L 2157.438999 345.650065 
L 2163.629026 350.617112 
L 2169.819053 350.963061 
L 2176.00908 356.289264 
L 2182.199107 345.32354 
L 2188.389134 349.261422 
L 2194.579162 350.946815 
L 2200.769189 354.69728 
L 2206.959216 345.672536 
L 2213.149243 342.63241 
L 2219.33927 347.928342 
L 2225.529298 352.775503 
L 2225.529298 352.775503 
" style="fill:none;stroke:#ff0000;stroke-linecap:square;"/>
   </g>
   <g id="line2d_55">
    <path clip-path="url(#p8828c48fa5)" d="M 1303.215248 821.520156 
L 1309.405275 803.39168 
L 1315.595302 790.992135 
L 1321.785329 793.146392 
L 1327.975357 791.14272 
L 1334.165384 780.512707 
L 1340.355411 783.952642 
L 1346.545438 774.082043 
L 1352.735465 766.542297 
L 1358.925493 762.463536 
L 1365.11552 760.06932 
L 1371.305547 753.210735 
L 1377.495574 764.869366 
L 1383.685601 752.204129 
L 1389.875628 746.709479 
L 1396.065656 750.262801 
L 1402.255683 740.791032 
L 1408.44571 751.983874 
L 1414.635737 746.17508 
L 1420.825764 736.089804 
L 1427.015792 735.291202 
L 1433.205819 726.784599 
L 1439.395846 727.318918 
L 1445.585873 713.44994 
L 1451.7759 712.867659 
L 1457.965927 704.453039 
L 1464.155955 715.319988 
L 1470.345982 717.134888 
L 1476.536009 699.957833 
L 1482.726036 715.91029 
L 1488.916063 712.063493 
L 1495.10609 710.524046 
L 1501.296118 712.890846 
L 1507.486145 702.231569 
L 1513.676172 713.30021 
L 1519.866199 700.768396 
L 1526.056226 695.010661 
L 1532.246254 706.217734 
L 1538.436281 709.949213 
L 1544.626308 696.566641 
L 1550.816335 702.331063 
L 1557.006362 684.649738 
L 1563.196389 708.275109 
L 1569.386417 705.368929 
L 1575.576444 701.299182 
L 1581.766471 699.877384 
L 1587.956498 696.980405 
L 1594.146525 701.416505 
L 1600.336552 686.733578 
L 1606.52658 692.748618 
L 1612.716607 683.965876 
L 1618.906634 690.74109 
L 1625.096661 698.686093 
L 1631.286688 691.940144 
L 1637.476716 681.453746 
L 1643.666743 686.003372 
L 1649.85677 687.79724 
L 1656.046797 684.743935 
L 1662.236824 673.703107 
L 1668.426851 666.676342 
L 1674.616879 693.121118 
L 1680.806906 679.039607 
L 1686.996933 688.405635 
L 1693.18696 680.146495 
L 1699.376987 680.275551 
L 1705.567015 686.944271 
L 1711.757042 670.043914 
L 1717.947069 675.574383 
L 1724.137096 670.020953 
L 1730.327123 679.086457 
L 1736.51715 677.939657 
L 1742.707178 672.01371 
L 1748.897205 683.85814 
L 1755.087232 683.983053 
L 1761.277259 676.314197 
L 1767.467286 688.361103 
L 1773.657313 677.320085 
L 1779.847341 677.524998 
L 1786.037368 678.478121 
L 1792.227395 680.994124 
L 1798.417422 670.648173 
L 1804.607449 671.400412 
L 1810.797477 673.822331 
L 1816.987504 674.372051 
L 1829.367558 671.819105 
L 1835.557585 682.871684 
L 1841.747612 674.101933 
L 1847.93764 661.512129 
L 1854.127667 671.013238 
L 1860.317694 693.426414 
L 1866.507721 679.114941 
L 1872.697748 674.162246 
L 1878.887776 664.258939 
L 1885.077803 678.694148 
L 1891.26783 672.907958 
L 1897.457857 670.09734 
L 1903.647884 670.431643 
L 1909.837911 667.375542 
L 1916.027939 673.782539 
L 1922.217966 661.694447 
L 1928.407993 657.558741 
L 1934.59802 656.902169 
L 1940.788047 658.223918 
L 1946.978074 660.991952 
L 1953.168102 655.389399 
L 1959.358129 654.64479 
L 1965.548156 645.933934 
L 1971.738183 654.832114 
L 1977.92821 648.885243 
L 1984.118238 653.428135 
L 1990.308265 653.538222 
L 1996.498292 659.196711 
L 2002.688319 653.137818 
L 2008.878346 649.302002 
L 2015.068373 655.886918 
L 2021.258401 653.204397 
L 2027.448428 656.729029 
L 2033.638455 641.042457 
L 2039.828482 652.397329 
L 2046.018509 657.847192 
L 2052.208537 652.568466 
L 2058.398564 644.420632 
L 2064.588591 652.261955 
L 2070.778618 658.948007 
L 2076.968645 649.161234 
L 2083.158672 651.774386 
L 2089.3487 657.289232 
L 2095.538727 647.389715 
L 2101.728754 656.420632 
L 2107.918781 636.022395 
L 2114.108808 640.673445 
L 2120.298835 649.62652 
L 2126.488863 654.392516 
L 2132.67889 648.597347 
L 2138.868917 642.321578 
L 2145.058944 654.724842 
L 2151.248971 654.469705 
L 2157.438999 643.848954 
L 2163.629026 649.798289 
L 2169.819053 653.14384 
L 2176.00908 659.255975 
L 2182.199107 645.344069 
L 2188.389134 647.336113 
L 2194.579162 654.970827 
L 2200.769189 657.966895 
L 2206.959216 643.215719 
L 2213.149243 648.523162 
L 2219.33927 649.303466 
L 2225.529298 654.175343 
L 2225.529298 654.175343 
" style="fill:none;stroke:#008000;stroke-linecap:square;"/>
   </g>
   <g id="line2d_56">
    <path clip-path="url(#p8828c48fa5)" d="M 1303.215248 655.522367 
L 1309.405275 586.246827 
L 1315.595302 573.761761 
L 1321.785329 547.355295 
L 1327.975357 563.265467 
L 1334.165384 518.518108 
L 1340.355411 516.639824 
L 1346.545438 501.503063 
L 1352.735465 486.034841 
L 1358.925493 474.544161 
L 1365.11552 464.489816 
L 1371.305547 453.330598 
L 1377.495574 465.926151 
L 1383.685601 441.397969 
L 1389.875628 445.486 
L 1396.065656 430.570213 
L 1402.255683 410.792986 
L 1408.44571 412.229321 
L 1414.635737 433.774345 
L 1420.825764 402.174976 
L 1427.015792 399.744255 
L 1433.205819 387.148702 
L 1439.395846 390.352834 
L 1445.585873 387.480164 
L 1451.7759 377.315332 
L 1457.965927 393.00453 
L 1464.155955 389.800398 
L 1470.345982 397.424022 
L 1476.536009 381.845312 
L 1482.726036 372.89584 
L 1488.916063 365.93514 
L 1495.10609 385.270418 
L 1501.296118 378.64118 
L 1507.486145 361.626135 
L 1513.676172 371.459505 
L 1519.866199 370.354632 
L 1526.056226 354.554947 
L 1532.246254 380.188002 
L 1538.436281 371.68048 
L 1544.626308 358.863952 
L 1550.816335 362.951982 
L 1557.006362 358.53249 
L 1563.196389 351.019353 
L 1569.386417 364.388317 
L 1575.576444 352.234714 
L 1581.766471 359.747851 
L 1587.956498 361.184186 
L 1594.146525 356.654206 
L 1600.336552 345.494988 
L 1606.52658 344.279628 
L 1612.716607 346.268399 
L 1618.906634 349.362044 
L 1625.096661 344.169141 
L 1631.286688 345.605475 
L 1637.476716 332.236512 
L 1643.666743 335.219669 
L 1649.85677 340.633547 
L 1656.046797 342.401344 
L 1662.236824 342.843293 
L 1668.426851 326.822634 
L 1674.616879 340.854521 
L 1680.806906 334.667232 
L 1686.996933 336.324542 
L 1693.18696 332.678461 
L 1699.376987 337.20844 
L 1705.567015 332.126024 
L 1711.757042 333.451872 
L 1717.947069 344.832064 
L 1724.137096 332.457486 
L 1730.327123 330.358227 
L 1736.51715 338.313313 
L 1742.707178 336.214055 
L 1748.897205 328.811405 
L 1755.087232 315.773903 
L 1761.277259 321.62973 
L 1767.467286 331.352613 
L 1779.847341 334.225283 
L 1786.037368 321.077294 
L 1792.227395 332.567973 
L 1798.417422 321.187781 
L 1804.607449 332.126024 
L 1810.797477 324.833862 
L 1816.987504 319.309497 
L 1823.177531 322.734603 
L 1829.367558 327.927507 
L 1835.557585 328.921892 
L 1841.747612 327.264583 
L 1847.93764 311.464898 
L 1854.127667 326.15971 
L 1860.317694 333.562359 
L 1866.507721 324.170938 
L 1872.697748 318.978035 
L 1878.887776 341.406958 
L 1885.077803 331.242126 
L 1891.26783 326.049222 
L 1897.457857 330.137253 
L 1903.647884 325.275811 
L 1909.837911 334.446258 
L 1916.027939 322.845091 
L 1922.217966 328.258969 
L 1928.407993 309.918076 
L 1940.788047 307.045406 
L 1946.978074 307.155893 
L 1953.168102 303.841274 
L 1959.358129 303.841274 
L 1965.548156 296.549112 
L 1971.738183 299.974218 
L 1977.92821 299.200807 
L 1984.118238 299.974218 
L 1990.308265 298.758858 
L 1996.498292 300.526655 
L 2002.688319 301.742015 
L 2008.878346 296.659599 
L 2015.068373 301.079091 
L 2021.258401 302.183964 
L 2027.448428 298.648371 
L 2033.638455 300.858117 
L 2039.828482 298.206421 
L 2046.018509 285.610869 
L 2052.208537 288.483539 
L 2058.398564 284.395508 
L 2064.588591 287.710127 
L 2070.778618 288.594026 
L 2076.968645 291.024747 
L 2083.158672 287.931102 
L 2089.3487 290.140848 
L 2095.538727 293.897417 
L 2101.728754 289.919874 
L 2107.918781 290.361823 
L 2114.108808 291.908645 
L 2120.298835 285.831843 
L 2126.488863 297.764472 
L 2132.67889 294.339366 
L 2138.868917 287.820615 
L 2145.058944 299.09032 
L 2151.248971 287.59964 
L 2157.438999 289.367437 
L 2163.629026 290.140848 
L 2169.819053 286.273792 
L 2176.00908 292.12962 
L 2182.199107 284.616483 
L 2188.389134 286.494767 
L 2194.579162 284.837458 
L 2200.769189 288.262564 
L 2206.959216 294.118391 
L 2213.149243 284.616483 
L 2219.33927 290.251335 
L 2225.529298 292.903031 
L 2225.529298 292.903031 
" style="fill:none;stroke:#0000ff;stroke-linecap:square;"/>
   </g>
   <g id="line2d_57">
    <path clip-path="url(#p8828c48fa5)" d="M 1303.215248 551.443326 
L 1309.405275 472.444902 
L 1315.595302 465.926151 
L 1321.785329 434.547756 
L 1327.975357 450.568416 
L 1334.165384 408.14129 
L 1340.355411 402.285463 
L 1346.545438 391.34722 
L 1352.735465 372.232916 
L 1358.925493 364.167343 
L 1365.11552 347.04181 
L 1371.305547 337.097953 
L 1377.495574 348.920095 
L 1383.685601 330.910664 
L 1389.875628 332.126024 
L 1396.065656 316.547314 
L 1402.255683 299.421782 
L 1408.44571 296.21765 
L 1414.635737 318.536086 
L 1420.825764 290.914259 
L 1427.015792 286.715742 
L 1433.205819 275.998473 
L 1439.395846 278.871143 
L 1445.585873 274.009702 
L 1451.7759 268.927286 
L 1457.965927 279.644554 
L 1464.155955 282.517224 
L 1470.345982 280.859915 
L 1476.536009 265.723154 
L 1482.726036 266.717539 
L 1488.916063 257.989042 
L 1495.10609 271.910443 
L 1501.296118 269.14826 
L 1507.486145 253.901012 
L 1513.676172 259.867326 
L 1519.866199 259.093915 
L 1526.056226 251.91224 
L 1532.246254 264.949743 
L 1538.436281 262.850484 
L 1544.626308 248.487134 
L 1550.816335 255.779296 
L 1557.006362 245.724951 
L 1563.196389 247.050799 
L 1569.386417 255.668809 
L 1575.576444 245.945926 
L 1581.766471 255.337347 
L 1587.956498 251.359804 
L 1594.146525 243.73618 
L 1600.336552 238.432789 
L 1606.52658 243.515205 
L 1612.716607 237.327916 
L 1618.906634 240.200586 
L 1625.096661 235.891581 
L 1631.286688 234.565734 
L 1637.476716 230.146241 
L 1643.666743 230.698678 
L 1649.85677 235.560119 
L 1656.046797 241.194972 
L 1662.236824 234.455246 
L 1668.426851 223.737978 
L 1674.616879 235.449632 
L 1680.806906 229.262343 
L 1686.996933 227.273571 
L 1693.18696 228.267957 
L 1699.376987 230.035754 
L 1705.567015 227.052597 
L 1711.757042 224.290414 
L 1717.947069 238.211815 
L 1724.137096 234.013297 
L 1730.327123 226.610648 
L 1736.51715 229.37283 
L 1742.707178 233.018911 
L 1748.897205 227.273571 
L 1755.087232 216.556303 
L 1761.277259 225.726749 
L 1767.467286 234.565734 
L 1773.657313 225.837236 
L 1779.847341 235.891581 
L 1786.037368 217.108739 
L 1792.227395 227.052597 
L 1798.417422 224.732363 
L 1804.607449 225.947724 
L 1810.797477 219.981409 
L 1816.987504 222.41213 
L 1823.177531 220.312871 
L 1829.367558 224.953338 
L 1835.557585 221.19677 
L 1841.747612 227.273571 
L 1847.93764 211.805349 
L 1854.127667 225.063825 
L 1860.317694 232.576962 
L 1866.507721 221.086282 
L 1872.697748 216.998252 
L 1878.887776 235.781094 
L 1885.077803 226.50016 
L 1891.26783 217.661176 
L 1897.457857 224.953338 
L 1903.647884 224.179927 
L 1909.837911 229.041368 
L 1916.027939 218.3241 
L 1922.217966 224.511389 
L 1928.407993 210.037552 
L 1934.59802 206.722933 
L 1940.788047 208.932679 
L 1946.978074 208.380242 
L 1953.168102 203.187339 
L 1959.358129 200.977593 
L 1965.548156 199.43077 
L 1971.738183 204.734161 
L 1977.92821 200.425156 
L 1984.118238 199.651745 
L 1990.308265 199.651745 
L 1996.498292 200.646131 
L 2002.688319 201.861491 
L 2008.878346 195.895177 
L 2015.068373 202.524415 
L 2021.258401 204.955136 
L 2027.448428 201.309055 
L 2033.638455 202.966364 
L 2039.828482 197.00005 
L 2046.018509 196.5581 
L 2052.208537 190.812761 
L 2058.398564 194.790304 
L 2064.588591 190.039349 
L 2070.778618 189.376426 
L 2076.968645 194.569329 
L 2083.158672 195.34274 
L 2089.3487 194.348354 
L 2095.538727 202.192953 
L 2101.728754 194.348354 
L 2107.918781 195.121766 
L 2120.298835 199.762232 
L 2126.488863 204.181725 
L 2132.67889 196.668588 
L 2138.868917 194.569329 
L 2145.058944 196.005664 
L 2151.248971 189.265938 
L 2157.438999 193.906405 
L 2163.629026 196.337126 
L 2169.819053 194.348354 
L 2176.00908 192.138608 
L 2182.199107 192.138608 
L 2188.389134 187.608629 
L 2194.579162 190.149837 
L 2200.769189 189.707888 
L 2206.959216 190.702273 
L 2213.149243 194.790304 
L 2219.33927 196.226639 
L 2225.529298 194.458842 
L 2225.529298 194.458842 
" style="fill:none;stroke:#bfbf00;stroke-linecap:square;"/>
   </g>
   <g id="line2d_58">
    <path clip-path="url(#p8828c48fa5)" d="M 1303.215248 442.723817 
L 1309.405275 355.549333 
L 1315.595302 349.693506 
L 1321.785329 318.315111 
L 1327.975357 333.893821 
L 1334.165384 302.625914 
L 1340.355411 295.775701 
L 1346.545438 281.080889 
L 1352.735465 270.474108 
L 1358.925493 258.762453 
L 1365.11552 241.526434 
L 1371.305547 236.112556 
L 1377.495574 242.410332 
L 1383.685601 227.384059 
L 1389.875628 223.185541 
L 1396.065656 209.374628 
L 1402.255683 198.767847 
L 1408.44571 200.425156 
L 1414.635737 216.335328 
L 1420.825764 194.348354 
L 1427.015792 187.498141 
L 1433.205819 181.752802 
L 1439.395846 181.42134 
L 1445.585873 181.531827 
L 1451.7759 180.537441 
L 1457.965927 185.398883 
L 1464.155955 185.50937 
L 1470.345982 192.47007 
L 1476.536009 174.350152 
L 1482.726036 174.460639 
L 1488.916063 166.505553 
L 1495.10609 177.885746 
L 1501.296118 176.338924 
L 1507.486145 164.18532 
L 1513.676172 172.140406 
L 1519.866199 165.621655 
L 1526.056226 166.726528 
L 1532.246254 171.808944 
L 1538.436281 171.366995 
L 1544.626308 157.556082 
L 1550.816335 165.069218 
L 1557.006362 160.649726 
L 1563.196389 164.074833 
L 1569.386417 165.621655 
L 1575.576444 155.788285 
L 1581.766471 170.262122 
L 1587.956498 167.05799 
L 1594.146525 159.434366 
L 1600.336552 157.998031 
L 1606.52658 157.998031 
L 1612.716607 150.705869 
L 1618.906634 153.136589 
L 1625.096661 150.374407 
L 1631.286688 149.932458 
L 1637.476716 143.413707 
L 1643.666743 149.82197 
L 1649.85677 147.833199 
L 1656.046797 153.026102 
L 1662.236824 149.490508 
L 1668.426851 143.413707 
L 1674.616879 156.451209 
L 1680.806906 147.170275 
L 1686.996933 144.07663 
L 1693.18696 138.994214 
L 1699.376987 143.745168 
L 1705.567015 140.872499 
L 1711.757042 145.181503 
L 1717.947069 151.037331 
L 1724.137096 142.087859 
L 1730.327123 144.408092 
L 1736.51715 146.065402 
L 1742.707178 147.059788 
L 1748.897205 139.878113 
L 1755.087232 140.541037 
L 1761.277259 144.51858 
L 1767.467286 148.054173 
L 1773.657313 143.192732 
L 1779.847341 150.153432 
L 1786.037368 140.430549 
L 1792.227395 144.51858 
L 1798.417422 143.524194 
L 1804.607449 147.059788 
L 1810.797477 141.314448 
L 1816.987504 142.198346 
L 1823.177531 138.441778 
L 1829.367558 148.275148 
L 1835.557585 137.889341 
L 1841.747612 140.651524 
L 1847.93764 131.81254 
L 1854.127667 145.291991 
L 1860.317694 147.722711 
L 1866.507721 141.64591 
L 1872.697748 135.790082 
L 1878.887776 153.026102 
L 1885.077803 143.082245 
L 1891.26783 142.087859 
L 1897.457857 144.960529 
L 1903.647884 140.651524 
L 1909.837911 145.181503 
L 1916.027939 141.64591 
L 1922.217966 137.557879 
L 1928.407993 131.260103 
L 1934.59802 128.829382 
L 1940.788047 130.597179 
L 1946.978074 129.160844 
L 1953.168102 128.829382 
L 1959.358129 123.967941 
L 1965.548156 125.293788 
L 1971.738183 129.050357 
L 1977.92821 122.310631 
L 1984.118238 124.630865 
L 1990.308265 124.078428 
L 1996.498292 122.531606 
L 2002.688319 127.393047 
L 2008.878346 127.945484 
L 2015.068373 126.619636 
L 2021.258401 128.49792 
L 2027.448428 128.276946 
L 2033.638455 126.951098 
L 2039.828482 120.653322 
L 2046.018509 123.525992 
L 2064.588591 121.205758 
L 2070.778618 119.216987 
L 2076.968645 122.200144 
L 2083.158672 122.531606 
L 2089.3487 123.967941 
L 2095.538727 126.398662 
L 2101.728754 123.19453 
L 2107.918781 123.525992 
L 2114.108808 125.846225 
L 2120.298835 121.979169 
L 2126.488863 126.398662 
L 2132.67889 123.857454 
L 2138.868917 119.327474 
L 2145.058944 123.084042 
L 2151.248971 119.437961 
L 2157.438999 122.75258 
L 2163.629026 124.962327 
L 2169.819053 123.525992 
L 2176.00908 122.642093 
L 2182.199107 118.996012 
L 2188.389134 120.763809 
L 2194.579162 119.658936 
L 2200.769189 118.112114 
L 2206.959216 119.879911 
L 2213.149243 117.780652 
L 2219.33927 123.746966 
L 2225.529298 119.769423 
L 2225.529298 119.769423 
" style="fill:none;stroke:#bf00bf;stroke-linecap:square;"/>
   </g>
   <g id="line2d_59">
    <path clip-path="url(#p8828c48fa5)" d="M 1303.215248 319.751446 
L 1309.405275 238.101327 
L 1315.595302 233.350373 
L 1321.785329 213.683633 
L 1327.975357 224.06944 
L 1334.165384 191.25471 
L 1340.355411 191.475684 
L 1352.735465 165.732142 
L 1358.925493 157.666569 
L 1365.11552 147.722711 
L 1371.305547 148.827585 
L 1377.495574 153.357564 
L 1383.685601 138.220803 
L 1389.875628 138.77324 
L 1396.065656 125.293788 
L 1402.255683 117.007241 
L 1408.44571 118.996012 
L 1414.635737 137.557879 
L 1420.825764 115.128956 
L 1433.205819 106.731921 
L 1439.395846 107.505332 
L 1445.585873 103.527789 
L 1451.7759 110.709464 
L 1457.965927 108.168256 
L 1464.155955 111.040926 
L 1470.345982 110.709464 
L 1476.536009 100.876094 
L 1482.726036 96.567089 
L 1488.916063 95.572703 
L 1495.10609 107.61582 
L 1501.296118 104.080226 
L 1507.486145 94.909779 
L 1513.676172 102.422916 
L 1519.866199 92.921008 
L 1526.056226 98.555861 
L 1532.246254 101.207556 
L 1538.436281 100.655119 
L 1544.626308 90.821749 
L 1550.816335 92.700033 
L 1557.006362 93.473445 
L 1563.196389 97.3405 
L 1569.386417 98.666348 
L 1575.576444 91.374186 
L 1581.766471 96.346114 
L 1587.956498 93.694419 
L 1600.336552 87.396643 
L 1606.52658 92.921008 
L 1612.716607 87.175668 
L 1618.906634 88.170054 
L 1625.096661 84.413485 
L 1631.286688 88.280541 
L 1637.476716 80.877892 
L 1643.666743 86.070795 
L 1649.85677 85.407871 
L 1656.046797 91.153211 
L 1662.236824 89.053952 
L 1668.426851 82.424714 
L 1674.616879 88.391028 
L 1680.806906 84.63446 
L 1686.996933 83.087638 
L 1693.18696 77.231811 
L 1699.376987 84.413485 
L 1705.567015 79.773019 
L 1711.757042 84.302998 
L 1717.947069 87.175668 
L 1724.137096 82.977151 
L 1730.327123 86.733719 
L 1736.51715 84.082024 
L 1742.707178 83.529587 
L 1748.897205 81.098866 
L 1755.087232 81.209354 
L 1767.467286 83.640074 
L 1773.657313 79.110095 
L 1779.847341 82.424714 
L 1786.037368 84.523973 
L 1792.227395 87.175668 
L 1798.417422 80.877892 
L 1804.607449 83.308612 
L 1810.797477 84.63446 
L 1816.987504 83.198125 
L 1823.177531 77.67376 
L 1829.367558 85.076409 
L 1835.557585 81.651303 
L 1841.747612 77.894734 
L 1847.93764 78.336684 
L 1854.127667 81.319841 
L 1860.317694 86.733719 
L 1866.507721 80.214968 
L 1872.697748 76.126938 
L 1878.887776 89.385414 
L 1885.077803 82.424714 
L 1891.26783 82.535201 
L 1897.457857 82.424714 
L 1903.647884 83.308612 
L 1909.837911 83.750562 
L 1916.027939 80.656917 
L 1922.217966 79.662531 
L 1928.407993 75.684988 
L 1934.59802 76.347912 
L 1940.788047 75.795476 
L 1946.978074 75.684988 
L 1953.168102 74.80109 
L 1959.358129 72.591344 
L 1965.548156 72.701831 
L 1971.738183 75.243039 
L 1984.118238 69.497699 
L 1990.308265 68.724288 
L 1996.498292 71.155009 
L 2002.688319 71.707445 
L 2008.878346 72.812318 
L 2021.258401 71.375983 
L 2027.448428 72.259882 
L 2033.638455 72.038907 
L 2039.828482 67.508928 
L 2046.018509 69.387212 
L 2052.208537 66.625029 
L 2058.398564 68.282339 
L 2064.588591 66.846004 
L 2070.778618 67.39844 
L 2076.968645 69.387212 
L 2083.158672 70.602572 
L 2089.3487 68.392826 
L 2095.538727 69.166237 
L 2101.728754 68.061364 
L 2107.918781 69.387212 
L 2114.108808 72.038907 
L 2120.298835 66.625029 
L 2126.488863 71.265496 
L 2132.67889 72.259882 
L 2138.868917 67.177466 
L 2145.058944 71.155009 
L 2151.248971 67.84039 
L 2157.438999 72.038907 
L 2163.629026 71.92842 
L 2169.819053 68.613801 
L 2176.00908 70.934034 
L 2182.199107 65.520156 
L 2188.389134 68.503313 
L 2194.579162 70.27111 
L 2200.769189 67.066979 
L 2206.959216 67.729902 
L 2213.149243 65.741131 
L 2219.33927 68.724288 
L 2225.529298 66.18308 
L 2225.529298 66.18308 
" style="fill:none;stroke:#000000;stroke-linecap:square;"/>
   </g>
   <g id="patch_9">
    <path d="M 1257.099545 859.320156 
L 1257.099545 27.720156 
" style="fill:none;stroke:#ffffff;stroke-linecap:square;stroke-linejoin:miter;"/>
   </g>
   <g id="patch_10">
    <path d="M 2271.645 859.320156 
L 2271.645 27.720156 
" style="fill:none;stroke:#ffffff;stroke-linecap:square;stroke-linejoin:miter;"/>
   </g>
   <g id="patch_11">
    <path d="M 1257.099545 859.320156 
L 2271.645 859.320156 
" style="fill:none;stroke:#ffffff;stroke-linecap:square;stroke-linejoin:miter;"/>
   </g>
   <g id="patch_12">
    <path d="M 1257.099545 27.720156 
L 2271.645 27.720156 
" style="fill:none;stroke:#ffffff;stroke-linecap:square;stroke-linejoin:miter;"/>
   </g>
   <g id="text_28">
    <!-- NMI: 0.597 | F1: 0.268 | Recall @ 1: 0.659 | Recall @ 2: 0.767 | Recall @ 4: 0.845 | Recall @ 8: 0.903 -->
    <defs>
     <path d="M 9.8125 72.90625 
L 23.09375 72.90625 
L 55.421875 11.921875 
L 55.421875 72.90625 
L 64.984375 72.90625 
L 64.984375 0 
L 51.703125 0 
L 19.390625 60.984375 
L 19.390625 0 
L 9.8125 0 
z
" id="DejaVuSans-4e"/>
     <path d="M 9.8125 72.90625 
L 24.515625 72.90625 
L 43.109375 23.296875 
L 61.8125 72.90625 
L 76.515625 72.90625 
L 76.515625 0 
L 66.890625 0 
L 66.890625 64.015625 
L 48.09375 14.015625 
L 38.1875 14.015625 
L 19.390625 64.015625 
L 19.390625 0 
L 9.8125 0 
z
" id="DejaVuSans-4d"/>
     <path d="M 9.8125 72.90625 
L 19.671875 72.90625 
L 19.671875 0 
L 9.8125 0 
z
" id="DejaVuSans-49"/>
     <path d="M 11.71875 12.40625 
L 22.015625 12.40625 
L 22.015625 0 
L 11.71875 0 
z
M 11.71875 51.703125 
L 22.015625 51.703125 
L 22.015625 39.3125 
L 11.71875 39.3125 
z
" id="DejaVuSans-3a"/>
     <path d="M 10.984375 1.515625 
L 10.984375 10.5 
Q 14.703125 8.734375 18.5 7.8125 
Q 22.3125 6.890625 25.984375 6.890625 
Q 35.75 6.890625 40.890625 13.453125 
Q 46.046875 20.015625 46.78125 33.40625 
Q 43.953125 29.203125 39.59375 26.953125 
Q 35.25 24.703125 29.984375 24.703125 
Q 19.046875 24.703125 12.671875 31.3125 
Q 6.296875 37.9375 6.296875 49.421875 
Q 6.296875 60.640625 12.9375 67.421875 
Q 19.578125 74.21875 30.609375 74.21875 
Q 43.265625 74.21875 49.921875 64.515625 
Q 56.59375 54.828125 56.59375 36.375 
Q 56.59375 19.140625 48.40625 8.859375 
Q 40.234375 -1.421875 26.421875 -1.421875 
Q 22.703125 -1.421875 18.890625 -0.6875 
Q 15.09375 0.046875 10.984375 1.515625 
z
M 30.609375 32.421875 
Q 37.25 32.421875 41.125 36.953125 
Q 45.015625 41.5 45.015625 49.421875 
Q 45.015625 57.28125 41.125 61.84375 
Q 37.25 66.40625 30.609375 66.40625 
Q 23.96875 66.40625 20.09375 61.84375 
Q 16.21875 57.28125 16.21875 49.421875 
Q 16.21875 41.5 20.09375 36.953125 
Q 23.96875 32.421875 30.609375 32.421875 
z
" id="DejaVuSans-39"/>
     <path d="M 8.203125 72.90625 
L 55.078125 72.90625 
L 55.078125 68.703125 
L 28.609375 0 
L 18.3125 0 
L 43.21875 64.59375 
L 8.203125 64.59375 
z
" id="DejaVuSans-37"/>
     <path d="M 21 76.421875 
L 21 -23.578125 
L 12.703125 -23.578125 
L 12.703125 76.421875 
z
" id="DejaVuSans-7c"/>
     <path d="M 9.8125 72.90625 
L 51.703125 72.90625 
L 51.703125 64.59375 
L 19.671875 64.59375 
L 19.671875 43.109375 
L 48.578125 43.109375 
L 48.578125 34.8125 
L 19.671875 34.8125 
L 19.671875 0 
L 9.8125 0 
z
" id="DejaVuSans-46"/>
     <path d="M 44.390625 34.1875 
Q 47.5625 33.109375 50.5625 29.59375 
Q 53.5625 26.078125 56.59375 19.921875 
L 66.609375 0 
L 56 0 
L 46.6875 18.703125 
Q 43.0625 26.03125 39.671875 28.421875 
Q 36.28125 30.8125 30.421875 30.8125 
L 19.671875 30.8125 
L 19.671875 0 
L 9.8125 0 
L 9.8125 72.90625 
L 32.078125 72.90625 
Q 44.578125 72.90625 50.734375 67.671875 
Q 56.890625 62.453125 56.890625 51.90625 
Q 56.890625 45.015625 53.6875 40.46875 
Q 50.484375 35.9375 44.390625 34.1875 
z
M 19.671875 64.796875 
L 19.671875 38.921875 
L 32.078125 38.921875 
Q 39.203125 38.921875 42.84375 42.21875 
Q 46.484375 45.515625 46.484375 51.90625 
Q 46.484375 58.296875 42.84375 61.546875 
Q 39.203125 64.796875 32.078125 64.796875 
z
" id="DejaVuSans-52"/>
     <path d="M 9.421875 75.984375 
L 18.40625 75.984375 
L 18.40625 0 
L 9.421875 0 
z
" id="DejaVuSans-6c"/>
     <path d="M 37.203125 26.21875 
Q 37.203125 19.234375 40.671875 15.25 
Q 44.140625 11.28125 50.203125 11.28125 
Q 56.203125 11.28125 59.640625 15.28125 
Q 63.09375 19.28125 63.09375 26.21875 
Q 63.09375 33.0625 59.578125 37.078125 
Q 56.0625 41.109375 50.09375 41.109375 
Q 44.1875 41.109375 40.6875 37.109375 
Q 37.203125 33.109375 37.203125 26.21875 
z
M 63.8125 11.625 
Q 60.890625 7.859375 57.109375 6.078125 
Q 53.328125 4.296875 48.296875 4.296875 
Q 39.890625 4.296875 34.640625 10.375 
Q 29.390625 16.453125 29.390625 26.21875 
Q 29.390625 35.984375 34.65625 42.078125 
Q 39.9375 48.1875 48.296875 48.1875 
Q 53.328125 48.1875 57.125 46.359375 
Q 60.9375 44.53125 63.8125 40.828125 
L 63.8125 47.21875 
L 70.796875 47.21875 
L 70.796875 11.28125 
Q 77.9375 12.359375 81.953125 17.796875 
Q 85.984375 23.25 85.984375 31.890625 
Q 85.984375 37.109375 84.4375 41.703125 
Q 82.90625 46.296875 79.78125 50.203125 
Q 74.703125 56.59375 67.40625 59.984375 
Q 60.109375 63.375 51.515625 63.375 
Q 45.515625 63.375 39.984375 61.78125 
Q 34.46875 60.203125 29.78125 57.078125 
Q 22.125 52.09375 17.796875 44.015625 
Q 13.484375 35.9375 13.484375 26.515625 
Q 13.484375 18.75 16.28125 11.953125 
Q 19.09375 5.171875 24.421875 0 
Q 29.546875 -5.078125 36.28125 -7.734375 
Q 43.015625 -10.40625 50.6875 -10.40625 
Q 56.984375 -10.40625 63.0625 -8.28125 
Q 69.140625 -6.15625 74.21875 -2.203125 
L 78.609375 -7.625 
Q 72.515625 -12.359375 65.3125 -14.875 
Q 58.109375 -17.390625 50.6875 -17.390625 
Q 41.65625 -17.390625 33.640625 -14.1875 
Q 25.640625 -10.984375 19.390625 -4.890625 
Q 13.140625 1.21875 9.859375 9.25 
Q 6.59375 17.28125 6.59375 26.515625 
Q 6.59375 35.40625 9.90625 43.453125 
Q 13.234375 51.515625 19.390625 57.625 
Q 25.6875 63.8125 33.9375 67.109375 
Q 42.1875 70.40625 51.421875 70.40625 
Q 61.765625 70.40625 70.625 66.15625 
Q 79.5 61.921875 85.5 54.109375 
Q 89.15625 49.3125 91.078125 43.703125 
Q 93.015625 38.09375 93.015625 32.078125 
Q 93.015625 19.234375 85.25 11.8125 
Q 77.484375 4.390625 63.8125 4.109375 
z
" id="DejaVuSans-40"/>
    </defs>
    <g transform="translate(1286.678132 21.720156)scale(0.19 -0.19)">
     <use xlink:href="#DejaVuSans-4e"/>
     <use x="74.804688" xlink:href="#DejaVuSans-4d"/>
     <use x="161.083984" xlink:href="#DejaVuSans-49"/>
     <use x="190.576172" xlink:href="#DejaVuSans-3a"/>
     <use x="224.267578" xlink:href="#DejaVuSans-20"/>
     <use x="256.054688" xlink:href="#DejaVuSans-30"/>
     <use x="319.677734" xlink:href="#DejaVuSans-2e"/>
     <use x="351.464844" xlink:href="#DejaVuSans-35"/>
     <use x="415.087891" xlink:href="#DejaVuSans-39"/>
     <use x="478.710938" xlink:href="#DejaVuSans-37"/>
     <use x="542.333984" xlink:href="#DejaVuSans-20"/>
     <use x="574.121094" xlink:href="#DejaVuSans-7c"/>
     <use x="607.8125" xlink:href="#DejaVuSans-20"/>
     <use x="639.599609" xlink:href="#DejaVuSans-46"/>
     <use x="697.119141" xlink:href="#DejaVuSans-31"/>
     <use x="760.742188" xlink:href="#DejaVuSans-3a"/>
     <use x="794.433594" xlink:href="#DejaVuSans-20"/>
     <use x="826.220703" xlink:href="#DejaVuSans-30"/>
     <use x="889.84375" xlink:href="#DejaVuSans-2e"/>
     <use x="921.630859" xlink:href="#DejaVuSans-32"/>
     <use x="985.253906" xlink:href="#DejaVuSans-36"/>
     <use x="1048.876953" xlink:href="#DejaVuSans-38"/>
     <use x="1112.5" xlink:href="#DejaVuSans-20"/>
     <use x="1144.287109" xlink:href="#DejaVuSans-7c"/>
     <use x="1177.978516" xlink:href="#DejaVuSans-20"/>
     <use x="1209.765625" xlink:href="#DejaVuSans-52"/>
     <use x="1279.185547" xlink:href="#DejaVuSans-65"/>
     <use x="1340.708984" xlink:href="#DejaVuSans-63"/>
     <use x="1395.689453" xlink:href="#DejaVuSans-61"/>
     <use x="1456.96875" xlink:href="#DejaVuSans-6c"/>
     <use x="1484.751953" xlink:href="#DejaVuSans-6c"/>
     <use x="1512.535156" xlink:href="#DejaVuSans-20"/>
     <use x="1544.322266" xlink:href="#DejaVuSans-40"/>
     <use x="1644.322266" xlink:href="#DejaVuSans-20"/>
     <use x="1676.109375" xlink:href="#DejaVuSans-31"/>
     <use x="1739.732422" xlink:href="#DejaVuSans-3a"/>
     <use x="1773.423828" xlink:href="#DejaVuSans-20"/>
     <use x="1805.210938" xlink:href="#DejaVuSans-30"/>
     <use x="1868.833984" xlink:href="#DejaVuSans-2e"/>
     <use x="1900.621094" xlink:href="#DejaVuSans-36"/>
     <use x="1964.244141" xlink:href="#DejaVuSans-35"/>
     <use x="2027.867188" xlink:href="#DejaVuSans-39"/>
     <use x="2091.490234" xlink:href="#DejaVuSans-20"/>
     <use x="2123.277344" xlink:href="#DejaVuSans-7c"/>
     <use x="2156.96875" xlink:href="#DejaVuSans-20"/>
     <use x="2188.755859" xlink:href="#DejaVuSans-52"/>
     <use x="2258.175781" xlink:href="#DejaVuSans-65"/>
     <use x="2319.699219" xlink:href="#DejaVuSans-63"/>
     <use x="2374.679688" xlink:href="#DejaVuSans-61"/>
     <use x="2435.958984" xlink:href="#DejaVuSans-6c"/>
     <use x="2463.742188" xlink:href="#DejaVuSans-6c"/>
     <use x="2491.525391" xlink:href="#DejaVuSans-20"/>
     <use x="2523.3125" xlink:href="#DejaVuSans-40"/>
     <use x="2623.3125" xlink:href="#DejaVuSans-20"/>
     <use x="2655.099609" xlink:href="#DejaVuSans-32"/>
     <use x="2718.722656" xlink:href="#DejaVuSans-3a"/>
     <use x="2752.414062" xlink:href="#DejaVuSans-20"/>
     <use x="2784.201172" xlink:href="#DejaVuSans-30"/>
     <use x="2847.824219" xlink:href="#DejaVuSans-2e"/>
     <use x="2879.611328" xlink:href="#DejaVuSans-37"/>
     <use x="2943.234375" xlink:href="#DejaVuSans-36"/>
     <use x="3006.857422" xlink:href="#DejaVuSans-37"/>
     <use x="3070.480469" xlink:href="#DejaVuSans-20"/>
     <use x="3102.267578" xlink:href="#DejaVuSans-7c"/>
     <use x="3135.958984" xlink:href="#DejaVuSans-20"/>
     <use x="3167.746094" xlink:href="#DejaVuSans-52"/>
     <use x="3237.166016" xlink:href="#DejaVuSans-65"/>
     <use x="3298.689453" xlink:href="#DejaVuSans-63"/>
     <use x="3353.669922" xlink:href="#DejaVuSans-61"/>
     <use x="3414.949219" xlink:href="#DejaVuSans-6c"/>
     <use x="3442.732422" xlink:href="#DejaVuSans-6c"/>
     <use x="3470.515625" xlink:href="#DejaVuSans-20"/>
     <use x="3502.302734" xlink:href="#DejaVuSans-40"/>
     <use x="3602.302734" xlink:href="#DejaVuSans-20"/>
     <use x="3634.089844" xlink:href="#DejaVuSans-34"/>
     <use x="3697.712891" xlink:href="#DejaVuSans-3a"/>
     <use x="3731.404297" xlink:href="#DejaVuSans-20"/>
     <use x="3763.191406" xlink:href="#DejaVuSans-30"/>
     <use x="3826.814453" xlink:href="#DejaVuSans-2e"/>
     <use x="3858.601562" xlink:href="#DejaVuSans-38"/>
     <use x="3922.224609" xlink:href="#DejaVuSans-34"/>
     <use x="3985.847656" xlink:href="#DejaVuSans-35"/>
     <use x="4049.470703" xlink:href="#DejaVuSans-20"/>
     <use x="4081.257812" xlink:href="#DejaVuSans-7c"/>
     <use x="4114.949219" xlink:href="#DejaVuSans-20"/>
     <use x="4146.736328" xlink:href="#DejaVuSans-52"/>
     <use x="4216.15625" xlink:href="#DejaVuSans-65"/>
     <use x="4277.679688" xlink:href="#DejaVuSans-63"/>
     <use x="4332.660156" xlink:href="#DejaVuSans-61"/>
     <use x="4393.939453" xlink:href="#DejaVuSans-6c"/>
     <use x="4421.722656" xlink:href="#DejaVuSans-6c"/>
     <use x="4449.505859" xlink:href="#DejaVuSans-20"/>
     <use x="4481.292969" xlink:href="#DejaVuSans-40"/>
     <use x="4581.292969" xlink:href="#DejaVuSans-20"/>
     <use x="4613.080078" xlink:href="#DejaVuSans-38"/>
     <use x="4676.703125" xlink:href="#DejaVuSans-3a"/>
     <use x="4710.394531" xlink:href="#DejaVuSans-20"/>
     <use x="4742.181641" xlink:href="#DejaVuSans-30"/>
     <use x="4805.804688" xlink:href="#DejaVuSans-2e"/>
     <use x="4837.591797" xlink:href="#DejaVuSans-39"/>
     <use x="4901.214844" xlink:href="#DejaVuSans-30"/>
     <use x="4964.837891" xlink:href="#DejaVuSans-33"/>
    </g>
   </g>
   <g id="legend_2">
    <g id="patch_13">
     <path d="M 2124.45 851.320156 
L 2260.445 851.320156 
Q 2263.645 851.320156 2263.645 848.120156 
L 2263.645 708.810156 
Q 2263.645 705.610156 2260.445 705.610156 
L 2124.45 705.610156 
Q 2121.25 705.610156 2121.25 708.810156 
L 2121.25 848.120156 
Q 2121.25 851.320156 2124.45 851.320156 
z
" style="fill:#e5e5e5;opacity:0.8;stroke:#cccccc;stroke-linejoin:miter;stroke-width:0.5;"/>
    </g>
    <g id="line2d_60">
     <path d="M 2127.65 718.567656 
L 2159.65 718.567656 
" style="fill:none;stroke:#ff0000;stroke-linecap:square;"/>
    </g>
    <g id="line2d_61"/>
    <g id="text_29">
     <!-- NMI -->
     <g transform="translate(2172.45 724.167656)scale(0.16 -0.16)">
      <use xlink:href="#DejaVuSans-4e"/>
      <use x="74.804688" xlink:href="#DejaVuSans-4d"/>
      <use x="161.083984" xlink:href="#DejaVuSans-49"/>
     </g>
    </g>
    <g id="line2d_62">
     <path d="M 2127.65 742.052656 
L 2159.65 742.052656 
" style="fill:none;stroke:#008000;stroke-linecap:square;"/>
    </g>
    <g id="line2d_63"/>
    <g id="text_30">
     <!-- F1 -->
     <g transform="translate(2172.45 747.652656)scale(0.16 -0.16)">
      <use xlink:href="#DejaVuSans-46"/>
      <use x="57.519531" xlink:href="#DejaVuSans-31"/>
     </g>
    </g>
    <g id="line2d_64">
     <path d="M 2127.65 765.537656 
L 2159.65 765.537656 
" style="fill:none;stroke:#0000ff;stroke-linecap:square;"/>
    </g>
    <g id="line2d_65"/>
    <g id="text_31">
     <!-- Recall @ 1 -->
     <g transform="translate(2172.45 771.137656)scale(0.16 -0.16)">
      <use xlink:href="#DejaVuSans-52"/>
      <use x="69.419922" xlink:href="#DejaVuSans-65"/>
      <use x="130.943359" xlink:href="#DejaVuSans-63"/>
      <use x="185.923828" xlink:href="#DejaVuSans-61"/>
      <use x="247.203125" xlink:href="#DejaVuSans-6c"/>
      <use x="274.986328" xlink:href="#DejaVuSans-6c"/>
      <use x="302.769531" xlink:href="#DejaVuSans-20"/>
      <use x="334.556641" xlink:href="#DejaVuSans-40"/>
      <use x="434.556641" xlink:href="#DejaVuSans-20"/>
      <use x="466.34375" xlink:href="#DejaVuSans-31"/>
     </g>
    </g>
    <g id="line2d_66">
     <path d="M 2127.65 789.022656 
L 2159.65 789.022656 
" style="fill:none;stroke:#bfbf00;stroke-linecap:square;"/>
    </g>
    <g id="line2d_67"/>
    <g id="text_32">
     <!-- Recall @ 2 -->
     <g transform="translate(2172.45 794.622656)scale(0.16 -0.16)">
      <use xlink:href="#DejaVuSans-52"/>
      <use x="69.419922" xlink:href="#DejaVuSans-65"/>
      <use x="130.943359" xlink:href="#DejaVuSans-63"/>
      <use x="185.923828" xlink:href="#DejaVuSans-61"/>
      <use x="247.203125" xlink:href="#DejaVuSans-6c"/>
      <use x="274.986328" xlink:href="#DejaVuSans-6c"/>
      <use x="302.769531" xlink:href="#DejaVuSans-20"/>
      <use x="334.556641" xlink:href="#DejaVuSans-40"/>
      <use x="434.556641" xlink:href="#DejaVuSans-20"/>
      <use x="466.34375" xlink:href="#DejaVuSans-32"/>
     </g>
    </g>
    <g id="line2d_68">
     <path d="M 2127.65 812.507656 
L 2159.65 812.507656 
" style="fill:none;stroke:#bf00bf;stroke-linecap:square;"/>
    </g>
    <g id="line2d_69"/>
    <g id="text_33">
     <!-- Recall @ 4 -->
     <g transform="translate(2172.45 818.107656)scale(0.16 -0.16)">
      <use xlink:href="#DejaVuSans-52"/>
      <use x="69.419922" xlink:href="#DejaVuSans-65"/>
      <use x="130.943359" xlink:href="#DejaVuSans-63"/>
      <use x="185.923828" xlink:href="#DejaVuSans-61"/>
      <use x="247.203125" xlink:href="#DejaVuSans-6c"/>
      <use x="274.986328" xlink:href="#DejaVuSans-6c"/>
      <use x="302.769531" xlink:href="#DejaVuSans-20"/>
      <use x="334.556641" xlink:href="#DejaVuSans-40"/>
      <use x="434.556641" xlink:href="#DejaVuSans-20"/>
      <use x="466.34375" xlink:href="#DejaVuSans-34"/>
     </g>
    </g>
    <g id="line2d_70">
     <path d="M 2127.65 835.992656 
L 2159.65 835.992656 
" style="fill:none;stroke:#000000;stroke-linecap:square;"/>
    </g>
    <g id="line2d_71"/>
    <g id="text_34">
     <!-- Recall @ 8 -->
     <g transform="translate(2172.45 841.592656)scale(0.16 -0.16)">
      <use xlink:href="#DejaVuSans-52"/>
      <use x="69.419922" xlink:href="#DejaVuSans-65"/>
      <use x="130.943359" xlink:href="#DejaVuSans-63"/>
      <use x="185.923828" xlink:href="#DejaVuSans-61"/>
      <use x="247.203125" xlink:href="#DejaVuSans-6c"/>
      <use x="274.986328" xlink:href="#DejaVuSans-6c"/>
      <use x="302.769531" xlink:href="#DejaVuSans-20"/>
      <use x="334.556641" xlink:href="#DejaVuSans-40"/>
      <use x="434.556641" xlink:href="#DejaVuSans-20"/>
      <use x="466.34375" xlink:href="#DejaVuSans-38"/>
     </g>
    </g>
   </g>
  </g>
 </g>
 <defs>
  <clipPath id="p0733e97663">
   <rect height="831.6" width="1014.545455" x="39.645" y="27.720156"/>
  </clipPath>
  <clipPath id="p8828c48fa5">
   <rect height="831.6" width="1014.545455" x="1257.099545" y="27.720156"/>
  </clipPath>
 </defs>
</svg>
